<svg width="33" height="33" viewBox="0 0 33 33" fill="none" xmlns="http://www.w3.org/2000/svg">
<path d="M24.9482 14.6036C24.5397 14.2535 7.90993 2.64185 7.15138 2.17505L6.91797 2V4.85915C6.91797 5.79276 7.38478 6.08451 7.96828 6.55131L8.08497 6.60966C8.90187 7.19316 20.747 15.4205 22.3224 16.5292C20.747 17.6378 8.72683 25.9819 7.96828 26.4487C7.03468 27.0322 6.97632 27.4406 6.97632 28.2575V31C6.97632 31 24.6564 18.6881 25.0065 18.3964C25.8234 17.8129 25.9985 17.0543 25.9985 16.5875V16.2374C25.9985 15.6539 25.6484 15.0704 24.9482 14.6036Z" fill="white"/>
<path d="M14.5613 17.8126C15.0281 17.8126 15.4949 17.6376 15.9617 17.2875C16.5452 16.879 17.0704 16.5289 17.0704 16.5289L17.2454 16.4122L17.0704 16.2955C17.0121 16.2372 9.25148 10.869 8.43458 10.3438C8.08448 10.0521 7.61768 9.99373 7.32593 10.1688C7.03418 10.3438 6.80078 10.6356 6.80078 11.1024V12.9112L6.85913 12.9696C6.91749 13.0279 12.2273 16.704 13.2776 17.4042C13.7444 17.6959 14.1529 17.8126 14.5613 17.8126Z" fill="white"/>
</svg>
