<svg width="12" height="12" viewBox="0 0 12 12" fill="none" xmlns="http://www.w3.org/2000/svg">
<path d="M1.76807 6.41643L6.30057 10.9489C6.38168 11.03 6.42418 11.1256 6.42807 11.2356C6.43141 11.3456 6.38696 11.4464 6.29474 11.5381C6.20363 11.627 6.10557 11.6723 6.00057 11.6739C5.89613 11.675 5.7978 11.6298 5.70557 11.5381L0.638906 6.47143C0.566128 6.39809 0.515017 6.32365 0.485573 6.24809C0.456128 6.17254 0.441406 6.08976 0.441406 5.99976C0.441406 5.90976 0.456128 5.82698 0.485573 5.75143C0.515017 5.67587 0.566128 5.60171 0.638906 5.52893L5.70557 0.461428C5.78335 0.38365 5.87807 0.341983 5.98974 0.336428C6.10196 0.330872 6.20391 0.372539 6.29557 0.461428C6.38724 0.553094 6.43307 0.651983 6.43307 0.758094C6.43307 0.864761 6.38724 0.963928 6.29557 1.05559L1.76724 5.58309H11.4172C11.5361 5.58309 11.6353 5.62282 11.7147 5.70226C11.7942 5.78171 11.8339 5.88087 11.8339 5.99976C11.8339 6.11865 11.7942 6.21782 11.7147 6.29726C11.6353 6.37671 11.5361 6.41643 11.4172 6.41643H1.76807Z" fill="#444F55"/>
</svg>
