<svg width="32" height="33" viewBox="0 0 32 33" fill="none" xmlns="http://www.w3.org/2000/svg">
<rect y="0.957031" width="32" height="32" rx="16" fill="#85959E"/>
<path d="M21 23.623C21 22.297 20.4732 21.0252 19.5355 20.0875C18.5979 19.1498 17.3261 18.623 16 18.623C14.6739 18.623 13.4021 19.1498 12.4645 20.0875C11.5268 21.0252 11 22.297 11 23.623" stroke="white" stroke-linecap="round" stroke-linejoin="round"/>
<path d="M16.0003 18.6237C17.8413 18.6237 19.3337 17.1313 19.3337 15.2904C19.3337 13.4494 17.8413 11.957 16.0003 11.957C14.1594 11.957 12.667 13.4494 12.667 15.2904C12.667 17.1313 14.1594 18.6237 16.0003 18.6237Z" stroke="white" stroke-linecap="round" stroke-linejoin="round"/>
<path d="M16.0003 25.2897C20.6027 25.2897 24.3337 21.5588 24.3337 16.9564C24.3337 12.354 20.6027 8.62305 16.0003 8.62305C11.398 8.62305 7.66699 12.354 7.66699 16.9564C7.66699 21.5588 11.398 25.2897 16.0003 25.2897Z" stroke="white" stroke-linecap="round" stroke-linejoin="round"/>
</svg>
