<svg width="100" height="125" viewBox="0 0 100 125" fill="none" xmlns="http://www.w3.org/2000/svg">
<rect x="0.5" y="0.5" width="99" height="124" rx="7.5" fill="white"/>
<rect x="0.5" y="0.5" width="99" height="124" rx="7.5" stroke="#8FD7FF"/>
<path d="M32.9732 84.3327C31.7465 84.3327 30.7225 83.922 29.9012 83.1007C29.0781 82.2776 28.6665 81.2527 28.6665 80.026V45.9727C28.6665 44.746 29.0781 43.722 29.9012 42.9007C30.7225 42.0776 31.7465 41.666 32.9732 41.666H46.3065V44.3327H32.9732C32.5643 44.3327 32.1883 44.5033 31.8452 44.8447C31.5038 45.1878 31.3332 45.5638 31.3332 45.9727V80.026C31.3332 80.4349 31.5038 80.8109 31.8452 81.154C32.1883 81.4953 32.5643 81.666 32.9732 81.666H67.0265C67.4354 81.666 67.8114 81.4953 68.1545 81.154C68.4958 80.8109 68.6665 80.4349 68.6665 80.026V66.6927H71.3332V80.026C71.3332 81.2527 70.9225 82.2767 70.1012 83.098C69.2781 83.9211 68.2532 84.3327 67.0265 84.3327H32.9732ZM60.6665 60.3327V52.3327H52.6665V49.666H60.6665V41.666H63.3332V49.666H71.3332V52.3327H63.3332V60.3327H60.6665Z" fill="#47BDFF"/>
</svg>
