<svg width="70" height="70" viewBox="0 0 70 70" fill="none" xmlns="http://www.w3.org/2000/svg">
<path d="M7.33171 69.6673C5.33837 69.6673 3.67437 69 2.33971 67.6653C1.00215 66.3278 0.333374 64.6623 0.333374 62.669V7.33232C0.333374 5.33898 1.00215 3.67498 2.33971 2.34032C3.67437 1.00276 5.33837 0.333984 7.33171 0.333984H26.8317C27.447 0.333984 27.9627 0.541985 28.3787 0.957985C28.7918 1.37398 28.9984 1.88965 28.9984 2.50498C28.9984 3.11743 28.7918 3.63165 28.3787 4.04765C27.9627 4.46076 27.447 4.66732 26.8317 4.66732H7.33171C6.66726 4.66732 6.05626 4.94465 5.49871 5.49932C4.94404 6.05687 4.66671 6.66787 4.66671 7.33232V62.669C4.66671 63.3334 4.94404 63.9444 5.49871 64.502C6.05626 65.0567 6.66726 65.334 7.33171 65.334H62.6684C63.3328 65.334 63.9438 65.0567 64.5014 64.502C65.056 63.9444 65.3334 63.3334 65.3334 62.669V43.169C65.3334 42.5537 65.5414 42.038 65.9574 41.622C66.3734 41.206 66.889 40.9994 67.5044 41.0023C68.1168 41.0023 68.631 41.2089 69.047 41.622C69.4602 42.038 69.6667 42.5537 69.6667 43.169V62.669C69.6667 64.6623 68.9994 66.3263 67.6647 67.661C66.3272 68.9985 64.6617 69.6673 62.6684 69.6673H7.33171ZM52.3334 17.6673H41.5C40.8847 17.6673 40.3705 17.4593 39.9574 17.0433C39.5443 16.6273 39.3363 16.1117 39.3334 15.4963C39.3334 14.8839 39.5414 14.3697 39.9574 13.9537C40.3734 13.5405 40.8876 13.334 41.5 13.334H52.3334V2.50065C52.3334 1.88532 52.5414 1.3711 52.9574 0.957985C53.3734 0.544874 53.8876 0.336873 54.5 0.333984C55.1125 0.333984 55.6267 0.541985 56.0427 0.957985C56.4558 1.37398 56.6624 1.88821 56.6624 2.50065V13.334H67.4957C68.111 13.334 68.6253 13.542 69.0384 13.958C69.4544 14.374 69.6624 14.8897 69.6624 15.505C69.6624 16.1174 69.4544 16.6317 69.0384 17.0477C68.6282 17.4608 68.1154 17.6673 67.5 17.6673H56.6667V28.5007C56.6667 29.116 56.4587 29.6302 56.0427 30.0433C55.6267 30.4593 55.111 30.6673 54.4957 30.6673C53.8833 30.6673 53.369 30.4593 52.953 30.0433C52.5399 29.6302 52.3334 29.116 52.3334 28.5007V17.6673Z" fill="#47BDFF"/>
</svg>
