<svg width="22" height="22" viewBox="0 0 22 22" fill="none" xmlns="http://www.w3.org/2000/svg">
<path d="M11.0008 3.99907C11.002 3.5991 10.9232 3.20294 10.769 2.83387C10.6148 2.46481 10.3884 2.1303 10.1031 1.85002C9.81773 1.56974 9.47923 1.34935 9.10746 1.2018C8.7357 1.05426 8.33819 0.982551 7.9383 0.990886C7.53842 0.999221 7.14424 1.08744 6.77894 1.25034C6.41365 1.41324 6.08462 1.64755 5.81121 1.93948C5.53779 2.23141 5.32552 2.57506 5.18686 2.95023C5.0482 3.32539 4.98596 3.7245 5.00381 4.12407C4.41601 4.27521 3.87031 4.55812 3.40804 4.95139C2.94577 5.34465 2.57905 5.83795 2.33565 6.39392C2.09225 6.9499 1.97857 7.55397 2.0032 8.16039C2.02782 8.7668 2.19013 9.35967 2.47781 9.89407C1.97199 10.305 1.57423 10.8333 1.31915 11.433C1.06406 12.0327 0.959364 12.6857 1.01417 13.3351C1.06898 13.9845 1.28162 14.6106 1.63361 15.1591C1.9856 15.7076 2.46627 16.1617 3.03381 16.4821C2.96372 17.0243 3.00555 17.5752 3.15669 18.1006C3.30784 18.626 3.5651 19.1149 3.91259 19.537C4.26008 19.9591 4.69042 20.3055 5.17703 20.5548C5.66364 20.8041 6.19618 20.951 6.74178 20.9864C7.28738 21.0218 7.83445 20.945 8.34919 20.7607C8.86394 20.5764 9.33544 20.2885 9.73457 19.9148C10.1337 19.5412 10.452 19.0896 10.6698 18.5881C10.8876 18.0866 11.0002 17.5458 11.0008 16.9991V3.99907Z" stroke="#444F55" stroke-width="2" stroke-linecap="round" stroke-linejoin="round"/>
<path d="M11 3.99907C10.9988 3.5991 11.0776 3.20294 11.2318 2.83387C11.386 2.46481 11.6124 2.1303 11.8977 1.85002C12.1831 1.56974 12.5216 1.34935 12.8934 1.2018C13.2651 1.05426 13.6626 0.982551 14.0625 0.990886C14.4624 0.999221 14.8566 1.08744 15.2219 1.25034C15.5872 1.41324 15.9162 1.64755 16.1896 1.93948C16.463 2.23141 16.6753 2.57506 16.814 2.95023C16.9526 3.32539 17.0149 3.7245 16.997 4.12407C17.5848 4.27521 18.1305 4.55812 18.5928 4.95139C19.0551 5.34465 19.4218 5.83795 19.6652 6.39392C19.9086 6.9499 20.0223 7.55397 19.9976 8.16039C19.973 8.7668 19.8107 9.35967 19.523 9.89407C20.0288 10.305 20.4266 10.8333 20.6817 11.433C20.9368 12.0327 21.0415 12.6857 20.9867 13.3351C20.9318 13.9845 20.7192 14.6106 20.3672 15.1591C20.0152 15.7076 19.5345 16.1617 18.967 16.4821C19.0371 17.0243 18.9953 17.5752 18.8441 18.1006C18.693 18.626 18.4357 19.1149 18.0882 19.537C17.7407 19.9591 17.3104 20.3055 16.8238 20.5548C16.3372 20.8041 15.8046 20.951 15.259 20.9864C14.7134 21.0218 14.1664 20.945 13.6516 20.7607C13.1369 20.5764 12.6654 20.2885 12.2663 19.9148C11.8671 19.5412 11.5488 19.0896 11.331 18.5881C11.1133 18.0866 11.0006 17.5458 11 16.9991V3.99907Z" stroke="#444F55" stroke-width="2" stroke-linecap="round" stroke-linejoin="round"/>
<path d="M13.9996 12C13.16 11.7047 12.4269 11.167 11.8929 10.455C11.3589 9.74301 11.048 8.88867 10.9996 8C10.9511 8.88867 10.6402 9.74301 10.1062 10.455C9.57224 11.167 8.83912 11.7047 7.99956 12M16.5986 5.5C16.8406 5.08059 16.9775 4.60882 16.9976 4.125M5.00256 4.125C5.02234 4.60873 5.15889 5.0805 5.40056 5.5M2.47656 9.896C2.6595 9.74701 2.85527 9.61449 3.06156 9.5M18.9376 9.5C19.1439 9.61449 19.3396 9.74701 19.5226 9.896M4.99956 17C4.31039 17.0003 3.63283 16.8226 3.03256 16.484M18.9666 16.484C18.3663 16.8226 17.6887 17.0003 16.9996 17" stroke="#444F55" stroke-width="2" stroke-linecap="round" stroke-linejoin="round"/>
</svg>
