<svg width="100" height="125" viewBox="0 0 100 125" fill="none" xmlns="http://www.w3.org/2000/svg">
<g id="Frame 1000001243">
<rect x="0.5" y="0.5" width="99" height="124" rx="7.5" fill="white"/>
<rect x="0.5" y="0.5" width="99" height="124" rx="7.5" stroke="#8FD7FF"/>
<g id="Group 936">
<g id="Group 934">
<rect id="Rectangle 1137" x="14" y="19" width="35" height="3" rx="1.5" fill="#8FD7FF"/>
<rect id="Rectangle 1149" x="14" y="23" width="25" height="3" rx="1.5" fill="#D2EFFF"/>
<rect id="Rectangle 1140" x="14" y="34" width="36" height="6" rx="1" fill="#D2EFFF"/>
<rect id="Rectangle 1141" x="14" y="42" width="36" height="6" rx="1" fill="#D2EFFF"/>
<rect id="Rectangle 1148" x="54" y="19" width="32" height="37" rx="2" fill="#D2EFFF"/>
<rect id="Rectangle 1143" x="14" y="50" width="36" height="6" rx="3" fill="#47BDFF"/>
</g>
<g id="Group 935">
<rect id="Rectangle 1142" x="14" y="68" width="22" height="18" rx="2" fill="#D2EFFF"/>
<rect id="Rectangle 1144" x="39" y="68" width="22" height="18" rx="2" fill="#D2EFFF"/>
<rect id="Rectangle 1145" x="64" y="68" width="22" height="18" rx="2" fill="#D2EFFF"/>
<rect id="Rectangle 1143_2" x="14" y="90" width="72" height="2" rx="1" fill="#D2EFFF"/>
<rect id="Rectangle 1141_2" x="14" y="94" width="72" height="2" rx="1" fill="#D2EFFF"/>
<rect id="Rectangle 1142_2" x="14" y="98" width="72" height="2" rx="1" fill="#D2EFFF"/>
</g>
<circle id="Ellipse 10" cx="91.5" cy="115.5" r="4.5" fill="#D2EFFF"/>
</g>
</g>
</svg>
