<svg width="100" height="125" viewBox="0 0 100 125" fill="none" xmlns="http://www.w3.org/2000/svg">
<rect x="0.5" y="0.5" width="99" height="124" rx="7.5" fill="white"/>
<rect x="0.5" y="0.5" width="99" height="124" rx="7.5" stroke="#8FD7FF"/>
<circle cx="91.5" cy="115.5" r="4.5" fill="#D2EFFF"/>
<rect x="68" y="39" width="16" height="16" rx="2" fill="#D2EFFF"/>
<rect x="14" y="39" width="48" height="3" rx="1.5" fill="#8FD7FF"/>
<rect x="14" y="46" width="23" height="3" rx="1.5" fill="#D2EFFF"/>
<rect x="39" y="46" width="23" height="3" rx="1.5" fill="#D2EFFF"/>
<rect x="14" y="67" width="48" height="4" rx="2" fill="#D2EFFF"/>
<rect x="14" y="62" width="48" height="4" rx="2" fill="#D2EFFF"/>
<rect x="14" y="51" width="48" height="3" rx="1.5" fill="#D2EFFF"/>
<rect x="68" y="57" width="16" height="2" rx="1" fill="#D2EFFF"/>
<rect x="68" y="61" width="16" height="2" rx="1" fill="#D2EFFF"/>
<rect x="68" y="69" width="16" height="2" rx="1" fill="#8FD7FF"/>
<rect x="14" y="80" width="48" height="7" rx="3.5" fill="#47BDFF"/>
</svg>
