<svg width="100" height="125" viewBox="0 0 100 125" fill="none" xmlns="http://www.w3.org/2000/svg">
<rect x="0.5" y="0.5" width="99" height="124" rx="7.5" fill="white"/>
<rect x="0.5" y="0.5" width="99" height="124" rx="7.5" stroke="#8FD7FF"/>
<circle cx="91.5" cy="115.5" r="4.5" fill="#D2EFFF"/>
<rect x="14" y="61" width="15" height="14" rx="2" fill="#D2EFFF"/>
<rect x="31" y="61" width="14" height="14" rx="2" fill="#D2EFFF"/>
<rect x="47" y="61" width="15" height="14" rx="2" fill="#D2EFFF"/>
<rect x="14" y="25" width="48" height="3" rx="1.5" fill="#8FD7FF"/>
<rect x="14" y="32" width="23" height="3" rx="1.5" fill="#D2EFFF"/>
<rect x="39" y="32" width="23" height="3" rx="1.5" fill="#D2EFFF"/>
<rect x="14" y="53" width="48" height="4" rx="2" fill="#D2EFFF"/>
<rect x="14" y="48" width="48" height="4" rx="2" fill="#D2EFFF"/>
<rect x="14" y="37" width="48" height="3" rx="1.5" fill="#D2EFFF"/>
<rect x="14" y="77" width="15" height="4" rx="2" fill="#47BDFF"/>
<rect x="31" y="77" width="14" height="4" rx="2" fill="#47BDFF"/>
<rect x="47" y="77" width="15" height="4" rx="2" fill="#47BDFF"/>
<rect x="14" y="93" width="48" height="7" rx="3.5" fill="#47BDFF"/>
<rect x="68.5" y="25" width="16" height="16" rx="2" fill="#D2EFFF"/>
<rect x="68.5" y="43" width="16" height="2" rx="1" fill="#D2EFFF"/>
<rect x="68.5" y="47" width="16" height="2" rx="1" fill="#D2EFFF"/>
<rect x="68.5" y="55" width="16" height="2" rx="1" fill="#8FD7FF"/>
</svg>
