<svg width="74" height="75" viewBox="0 0 74 75" fill="none" xmlns="http://www.w3.org/2000/svg">
<circle cx="37" cy="43.5" r="31" fill="#C75E5E" fill-opacity="0.1"/>
<g filter="url(#filter0_d_2658_1662)">
<path d="M37.0007 6.83398C51.7286 6.83398 63.6673 18.7727 63.6673 33.5007C63.6673 48.2287 51.7286 60.1673 37.0007 60.1673C22.2727 60.1673 10.334 48.2287 10.334 33.5007C10.334 18.7727 22.2727 6.83398 37.0007 6.83398Z" fill="url(#paint0_linear_2658_1662)"/>
</g>
<path d="M22.4597 43.719C22.1802 43.719 21.933 43.6527 21.718 43.5201C21.503 43.3875 21.3357 43.2126 21.2163 42.9952C21.0873 42.7814 21.0156 42.5502 21.0013 42.3018C20.9894 42.0522 21.0598 41.8007 21.2127 41.5475L35.3131 17.2238C35.466 16.9706 35.65 16.7867 35.865 16.672C36.08 16.5573 36.3141 16.5 36.5673 16.5C36.8205 16.5 37.054 16.5573 37.2678 16.672C37.4828 16.7867 37.6668 16.9706 37.8197 17.2238L51.9219 41.5475C52.0748 41.8007 52.1446 42.0516 52.1315 42.3C52.1196 42.5508 52.0479 42.7826 51.9165 42.9952C51.7971 43.2126 51.6298 43.3875 51.4148 43.5201C51.1998 43.6527 50.9532 43.719 50.6749 43.719H22.4597ZM36.5673 39.4459C36.8802 39.4459 37.1418 39.3402 37.352 39.1287C37.5635 38.9185 37.6692 38.6569 37.6692 38.344C37.6692 38.0311 37.5635 37.7695 37.352 37.5592C37.1418 37.3478 36.8802 37.2421 36.5673 37.2421C36.2544 37.2421 35.9928 37.3478 35.7825 37.5592C35.5711 37.7695 35.4654 38.0311 35.4654 38.344C35.4654 38.6569 35.5711 38.9185 35.7825 39.1287C35.9928 39.3402 36.2544 39.4459 36.5673 39.4459ZM36.5673 35.4505C36.8217 35.4505 37.0349 35.3645 37.2069 35.1925C37.3777 35.0205 37.4631 34.8078 37.4631 34.5546V27.388C37.4631 27.1335 37.3771 26.9203 37.2051 26.7483C37.0331 26.5775 36.8199 26.4921 36.5655 26.4921C36.3111 26.4921 36.0985 26.5775 35.9277 26.7483C35.7569 26.9203 35.6715 27.1335 35.6715 27.388V34.5546C35.6715 34.8078 35.7575 35.0205 35.9295 35.1925C36.1015 35.3645 36.3147 35.4505 36.5691 35.4505" fill="url(#paint1_linear_2658_1662)"/>
<defs>
<filter id="filter0_d_2658_1662" x="0.40295" y="0.213295" width="73.1961" height="73.1961" filterUnits="userSpaceOnUse" color-interpolation-filters="sRGB">
<feFlood flood-opacity="0" result="BackgroundImageFix"/>
<feColorMatrix in="SourceAlpha" type="matrix" values="0 0 0 0 0 0 0 0 0 0 0 0 0 0 0 0 0 0 127 0" result="hardAlpha"/>
<feOffset dy="3.31034"/>
<feGaussianBlur stdDeviation="4.96552"/>
<feComposite in2="hardAlpha" operator="out"/>
<feColorMatrix type="matrix" values="0 0 0 0 0.584314 0 0 0 0 0.615686 0 0 0 0 0.647059 0 0 0 0.2 0"/>
<feBlend mode="normal" in2="BackgroundImageFix" result="effect1_dropShadow_2658_1662"/>
<feBlend mode="normal" in="SourceGraphic" in2="effect1_dropShadow_2658_1662" result="shape"/>
</filter>
<linearGradient id="paint0_linear_2658_1662" x1="37.0007" y1="6.83398" x2="37.0007" y2="60.1673" gradientUnits="userSpaceOnUse">
<stop stop-color="#EC8686"/>
<stop offset="1" stop-color="#C75E5E"/>
</linearGradient>
<linearGradient id="paint1_linear_2658_1662" x1="36.5665" y1="16.5" x2="36.5665" y2="43.719" gradientUnits="userSpaceOnUse">
<stop stop-color="white"/>
<stop offset="1" stop-color="#F8D7D7"/>
</linearGradient>
</defs>
</svg>
