<svg width="100" height="125" viewBox="0 0 100 125" fill="none" xmlns="http://www.w3.org/2000/svg">
<rect x="0.5" y="0.5" width="99" height="124" rx="7.5" fill="white"/>
<rect x="0.5" y="0.5" width="99" height="124" rx="7.5" stroke="#8FD7FF"/>
<rect width="100" height="11" fill="#D2EFFF"/>
<rect width="16" height="5" rx="2" transform="matrix(1 0 0 -1 3 8)" fill="#8FD7FF"/>
<rect width="10" height="3" rx="1.5" transform="matrix(1 0 0 -1 75 7)" fill="#8FD7FF"/>
<rect width="9" height="3" rx="1.5" transform="matrix(1 0 0 -1 65 7)" fill="#8FD7FF"/>
<rect width="9" height="3" rx="1.5" transform="matrix(1 0 0 -1 86 7)" fill="#8FD7FF"/>
<path d="M49.3332 46.79V37.0833C47.6621 37.1544 46.2443 37.8811 45.0798 39.2633C43.9154 40.6456 43.3332 42.1136 43.3332 43.6673H42.6665C41.3776 43.6673 40.2776 44.1229 39.3665 45.034C38.4554 45.9451 37.9998 47.0451 37.9998 48.334C37.9998 49.6229 38.4554 50.7229 39.3665 51.634C40.2776 52.5451 41.3776 53.0007 42.6665 53.0007H58.6665C59.5998 53.0007 60.3887 52.6784 61.0332 52.034C61.6776 51.3896 61.9998 50.6007 61.9998 49.6673C61.9998 48.734 61.6776 47.9451 61.0332 47.3007C60.3887 46.6562 59.5998 46.334 58.6665 46.334H56.6665V43.6673C56.6665 42.5669 56.4221 41.5553 55.9332 40.6327C55.4443 39.71 54.7998 38.9438 53.9998 38.334V36.7473C55.2514 37.4389 56.2309 38.4051 56.9385 39.646C57.6461 40.886 57.9998 42.2264 57.9998 43.6673V45.0007H58.8198C60.0972 45.0416 61.1687 45.5104 62.0345 46.4073C62.9003 47.3033 63.3332 48.39 63.3332 49.6673C63.3332 50.9749 62.8825 52.0798 61.9812 52.982C61.0781 53.8833 59.9732 54.334 58.6665 54.334H42.6665C41.0034 54.334 39.5874 53.7536 38.4185 52.5927C37.2505 51.4318 36.6665 50.0198 36.6665 48.3567C36.6665 46.8287 37.1887 45.4722 38.2332 44.2873C39.2776 43.1033 40.5758 42.4678 42.1278 42.3807C42.3518 40.7291 43.1812 39.2109 44.6158 37.826C46.0496 36.442 47.6221 35.75 49.3332 35.75C49.6905 35.75 50.0021 35.8829 50.2678 36.1487C50.5336 36.4144 50.6665 36.7256 50.6665 37.082V46.79L52.9438 44.5207C53.0683 44.3962 53.2198 44.3296 53.3985 44.3207C53.5772 44.3118 53.7398 44.3811 53.8865 44.5287C54.0287 44.6709 54.0998 44.8282 54.0998 45.0007C54.0998 45.1731 54.0287 45.3304 53.8865 45.4727L50.7532 48.606C50.5381 48.8211 50.2869 48.9287 49.9998 48.9287C49.7127 48.9287 49.4616 48.8211 49.2465 48.606L46.1132 45.4727C45.9887 45.3482 45.9207 45.1967 45.9092 45.018C45.8976 44.8393 45.9656 44.6762 46.1132 44.5287C46.2554 44.3864 46.4109 44.3144 46.5798 44.3127C46.7505 44.31 46.9092 44.3793 47.0558 44.5207L49.3332 46.79Z" fill="#D2EFFF"/>
<rect x="28" y="61" width="44" height="3" rx="1.5" fill="#8FD7FF"/>
<rect x="28" y="66" width="44" height="2" rx="1" fill="#D2EFFF"/>
<rect x="14" y="74" width="72" height="2" rx="1" fill="#D2EFFF"/>
<rect x="14" y="78" width="72" height="2" rx="1" fill="#D2EFFF"/>
<rect x="14" y="82" width="72" height="2" rx="1" fill="#D2EFFF"/>
<rect x="36" y="90" width="28" height="7" rx="3.5" fill="#47BDFF"/>
<circle cx="91.5" cy="115.5" r="4.5" fill="#D2EFFF"/>
</svg>
