<svg width="84" height="71" viewBox="0 0 84 71" fill="none" xmlns="http://www.w3.org/2000/svg">
<path d="M4.33333 25.3313V56.9993V4.99935V25.3313ZM50.167 66.667C51.727 66.667 53.0617 66.1123 54.171 65.003C55.2803 63.8937 55.835 62.559 55.835 60.999C55.835 59.439 55.2803 58.1043 54.171 56.995C53.0617 55.8857 51.727 55.331 50.167 55.331C48.607 55.331 47.2723 55.8857 46.163 56.995C45.0537 58.1043 44.499 59.439 44.499 60.999C44.499 62.559 45.0537 63.8937 46.163 65.003C47.2723 66.1123 48.607 66.667 50.167 66.667ZM73.6667 30.9993C75.2267 30.9993 76.5613 30.4447 77.6707 29.3353C78.78 28.2289 79.3347 26.8942 79.3347 25.3313C79.3347 23.7713 78.78 22.4367 77.6707 21.3273C76.5613 20.2209 75.2267 19.6677 73.6667 19.6677C72.1067 19.6677 70.772 20.2209 69.6627 21.3273C68.5533 22.4367 67.9987 23.7713 67.9987 25.3313C67.9987 26.8913 68.5533 28.226 69.6627 29.3353C70.772 30.4447 72.1067 30.9993 73.6667 30.9993ZM35.8367 24.4993C36.4491 24.4993 36.9619 24.2913 37.375 23.8753C37.791 23.4593 37.999 22.9437 37.999 22.3283C37.999 21.713 37.791 21.1988 37.375 20.7857C36.9619 20.3726 36.4477 20.166 35.8323 20.166H17.3333C16.718 20.166 16.2038 20.374 15.7907 20.79C15.3747 21.206 15.1667 21.7202 15.1667 22.3327C15.1667 22.9451 15.3747 23.4593 15.7907 23.8753C16.2067 24.2885 16.7209 24.495 17.3333 24.495L35.8367 24.4993ZM35.8367 41.8327C36.4491 41.8327 36.9619 41.6247 37.375 41.2087C37.791 40.7927 37.999 40.277 37.999 39.6617C37.999 39.0463 37.791 38.5321 37.375 38.119C36.9619 37.7059 36.4477 37.4993 35.8323 37.4993H17.3333C16.718 37.4993 16.2038 37.7073 15.7907 38.1233C15.3747 38.5393 15.1667 39.055 15.1667 39.6703C15.1667 40.2857 15.3747 40.7999 15.7907 41.213C16.2067 41.6261 16.7209 41.8327 17.3333 41.8327H35.8367ZM6.994 61.3327C5.00067 61.3327 3.33667 60.6653 2.002 59.3307C0.667333 57.9931 0 56.3277 0 54.3343V7.66435C0 5.67101 0.668778 4.00701 2.00633 2.67235C3.341 1.33479 5.005 0.666016 6.99833 0.666016H75.8333C76.4487 0.666016 76.9629 0.874016 77.376 1.29002C77.792 1.70602 78 2.22168 78 2.83702C78 3.44946 77.792 3.96368 77.376 4.37968C76.9629 4.79279 76.4487 4.99935 75.8333 4.99935H6.99833C6.33389 4.99935 5.72289 5.27668 5.16533 5.83135C4.61067 6.3889 4.33333 6.9999 4.33333 7.66435V54.3343C4.33333 54.9988 4.61067 55.6098 5.16533 56.1673C5.72289 56.722 6.33389 56.9993 6.99833 56.9993H29.3367C29.952 56.9993 30.4662 57.2073 30.8793 57.6233C31.2924 58.0393 31.5004 58.555 31.5033 59.1703C31.5033 59.7828 31.2953 60.297 30.8793 60.713C30.4633 61.1261 29.9491 61.3327 29.3367 61.3327H6.994ZM50.1627 70.996C47.3836 70.996 45.0219 70.0253 43.0777 68.084C41.1334 66.1398 40.1613 63.7781 40.1613 60.999C40.1613 58.5723 40.9052 56.462 42.393 54.668C43.8779 52.8711 45.7456 51.7343 47.996 51.2577V44.4977C47.996 43.5068 48.3311 42.6762 49.0013 42.006C49.6716 41.3358 50.5036 41.0007 51.4973 41.0007H71.5V35.0727C69.2496 34.596 67.3819 33.4607 65.897 31.6667C64.4092 29.8727 63.6653 27.7609 63.6653 25.3313C63.6653 22.5551 64.6374 20.1949 66.5817 18.2507C68.5259 16.3065 70.8876 15.3343 73.6667 15.3343C76.4458 15.3343 78.8074 16.3065 80.7517 18.2507C82.6959 20.1949 83.668 22.5551 83.668 25.3313C83.668 27.758 82.9241 29.8698 81.4363 31.6667C79.9514 33.4607 78.0838 34.596 75.8333 35.0727V41.8327C75.8333 42.8236 75.4982 43.6541 74.828 44.3243C74.1578 44.9975 73.3258 45.334 72.332 45.334H52.3337V51.2577C54.5841 51.7343 56.4518 52.8711 57.9367 54.668C59.4216 56.4649 60.1654 58.5752 60.1683 60.999C60.1683 63.7781 59.1962 66.1398 57.252 68.084C55.3049 70.0282 52.9432 71.0004 50.167 71.0004" fill="#47BDFF"/>
</svg>
