<svg width="86" height="91" viewBox="0 0 86 91" fill="none" xmlns="http://www.w3.org/2000/svg">
<path d="M79.5 4.425H47.8C45.7 2.025 44.2 0.625 44.1 0.525C43.4 -0.175 42.3 -0.175 41.6 0.525C41.5 0.625 40 2.025 37.9 4.425H6.3C2.8 4.425 0 7.225 0 10.725V83.925C0 87.425 2.8 90.225 6.3 90.225H79.6C83.1 90.225 85.9 87.425 85.9 83.925V10.725C85.8 7.325 83 4.425 79.5 4.425ZM79.5 86.525H6.3C4.9 86.525 3.7 85.325 3.7 83.925V21.525H27.7C26 26.125 25.1 30.625 25.1 35.025C25.1 37.925 25.3 40.825 25.6 43.625C24.9 44.125 24.2 44.525 23.6 45.125C14.3 52.525 15.4 61.725 15.5 62.525C15.7 65.425 19.5 66.425 21.2 64.125C23 61.625 26.2 60.425 30.2 59.825C30.4 60.225 30.7 60.725 30.9 61.125C31.4 62.125 32.3 62.825 33.3 63.325C36.5 64.725 39.7 65.425 42.9 65.425C46.1 65.425 49.3 64.725 52.5 63.325C53.5 62.925 54.3 62.125 54.9 61.125C55.1 60.725 55.4 60.225 55.6 59.825C59.6 60.325 62.8 61.525 64.6 64.125C66.2 66.425 70 65.625 70.3 62.525C70.3 62.025 71.6 52.625 62.2 45.125C61.6 44.625 60.9 44.125 60.2 43.625C60.5 40.825 60.7 38.025 60.7 35.025C60.7 30.625 59.8 26.125 58.1 21.525H82.1V83.925C82.1 85.325 81 86.525 79.5 86.525ZM3.7 10.725C3.7 9.325 4.9 8.125 6.3 8.125H35.1C34.6 8.825 34 9.625 33.5 10.525C32.1 12.625 30.9 14.625 29.9 16.725C29.9 16.825 29.6 17.325 29.4 17.725H3.7V10.725ZM82.1 10.725V17.725H56.5C56.3 17.425 56.2 17.025 56 16.725C55 14.625 53.8 12.625 52.4 10.525C51.8 9.725 51.3 8.925 50.8 8.125H79.6C81 8.225 82.1 9.325 82.1 10.725ZM51.6 59.225C51.5 59.525 51.2 59.725 51 59.825C45.5 62.225 40.2 62.225 34.8 59.825C34.5 59.725 34.3 59.525 34.2 59.225C30.8 53.225 28.9 44.325 28.9 35.025C28.9 29.625 30.4 24.425 32.5 19.925C36 20.825 39.5 21.325 43 21.325C46.5 21.325 50 20.825 53.5 19.925C55.6 24.425 57.1 29.525 57.1 35.025C57 44.325 55 53.125 51.6 59.225ZM59.5 47.625C63.8 50.925 66.5 55.525 66.6 60.525C64.2 58.025 61 56.825 57.1 56.125C58.1 53.525 58.9 50.725 59.5 47.625ZM28.7 56.125C24.8 56.725 21.6 58.025 19.2 60.525C19.3 55.525 22 50.925 26.3 47.625C26.9 50.725 27.7 53.525 28.7 56.125ZM51.6 16.525C45.8 17.925 39.9 17.925 34.1 16.525C37.2 10.925 40.9 6.625 42.8 4.625C44.8 6.525 48.5 10.825 51.6 16.525Z" fill="#85959E"/>
</svg>
