<svg width="100" height="125" viewBox="0 0 100 125" fill="none" xmlns="http://www.w3.org/2000/svg">
<rect x="0.5" y="0.5" width="99" height="124" rx="7.5" fill="white"/>
<rect x="0.5" y="0.5" width="99" height="124" rx="7.5" stroke="#8FD7FF"/>
<path d="M49.9997 89.6673C64.7273 89.6673 76.6663 77.7282 76.6663 63.0006C76.6663 48.2731 64.7273 36.334 49.9997 36.334C35.2721 36.334 23.333 48.2731 23.333 63.0006C23.333 77.7282 35.2721 89.6673 49.9997 89.6673Z" stroke="#47BDFF" stroke-width="2.5" stroke-linecap="round" stroke-linejoin="round"/>
<path d="M23.333 63.0006H76.6663M49.9997 36.334C43.1523 43.5237 39.333 53.072 39.333 63.0006C39.333 72.9293 43.1523 82.4776 49.9997 89.6673C56.847 82.4776 60.6663 72.9293 60.6663 63.0006C60.6663 53.072 56.847 43.5237 49.9997 36.334Z" stroke="#47BDFF" stroke-width="2.5" stroke-linecap="round" stroke-linejoin="round"/>
</svg>
