<svg width="30" height="27" viewBox="0 0 30 27" fill="none" xmlns="http://www.w3.org/2000/svg">
<path d="M15.333 0.281414C14.3997 0.214747 13.4263 0.42808 12.5597 0.934747C12.0029 1.25351 11.5146 1.67904 11.1227 2.18692C10.7307 2.6948 10.4429 3.27505 10.2757 3.8944C10.1085 4.51375 10.0651 5.16002 10.1482 5.79615C10.2312 6.43228 10.439 7.04576 10.7597 7.60141L20.5463 24.5347C21.893 26.8814 24.8797 27.6547 27.2263 26.3214C29.5597 24.9881 30.333 21.9881 28.9997 19.6547L19.2397 2.72141C18.8366 2.0272 18.2699 1.44201 17.589 1.01675C16.9082 0.591498 16.1337 0.339064 15.333 0.281414ZM8.09301 7.33475L0.999674 19.6547C0.567448 20.3956 0.337545 21.237 0.333008 22.0947C0.333008 22.7373 0.459578 23.3737 0.705491 23.9673C0.951404 24.561 1.31184 25.1005 1.76623 25.5549C2.22062 26.0092 2.76006 26.3697 3.35374 26.6156C3.94743 26.8615 4.58374 26.9881 5.22634 26.9881C6.08407 26.9855 6.92605 26.7574 7.66787 26.3268C8.4097 25.8963 9.02531 25.2782 9.45301 24.5347V24.5481L13.6663 17.2414C11.8663 14.1747 10.0263 11.1214 8.37301 7.96141C8.26634 7.76141 8.17301 7.54808 8.10634 7.33475H8.09301Z" fill="white"/>
</svg>
