<svg width="32" height="33" viewBox="0 0 32 33" fill="none" xmlns="http://www.w3.org/2000/svg">
<path d="M22.4969 1.82227H9.50278C5.09005 1.82227 1.5 5.41249 1.5 9.82522V22.8193C1.5 27.2322 5.09005 30.8223 9.50278 30.8223H22.4969C26.91 30.8223 30.5 27.232 30.5 22.8193V9.82522C30.5002 5.41249 26.91 1.82227 22.4969 1.82227ZM27.9272 22.8193C27.9272 25.8135 25.4912 28.2492 22.497 28.2492H9.50278C6.50881 28.2494 4.07302 25.8135 4.07302 22.8193V9.82522C4.07302 6.83125 6.50881 4.39529 9.50278 4.39529H22.4969C25.491 4.39529 27.927 6.83125 27.927 9.82522V22.8193H27.9272Z" fill="white"/>
<path d="M15.9999 8.84961C11.8795 8.84961 8.52734 12.2017 8.52734 16.3222C8.52734 20.4424 11.8795 23.7944 15.9999 23.7944C20.1203 23.7944 23.4725 20.4424 23.4725 16.3222C23.4725 12.2017 20.1203 8.84961 15.9999 8.84961ZM15.9999 21.2212C13.2984 21.2212 11.1004 19.0235 11.1004 16.322C11.1004 13.6203 13.2982 11.4225 15.9999 11.4225C18.7016 11.4225 20.8995 13.6203 20.8995 16.322C20.8995 19.0235 18.7014 21.2212 15.9999 21.2212Z" fill="white"/>
<path d="M23.7853 6.66797C23.2896 6.66797 22.8026 6.86866 22.4525 7.22031C22.1007 7.57024 21.8984 8.0574 21.8984 8.55485C21.8984 9.05076 22.1008 9.53774 22.4525 9.88939C22.8024 10.2393 23.2896 10.4417 23.7853 10.4417C24.2828 10.4417 24.7682 10.2393 25.1199 9.88939C25.4715 9.53774 25.6722 9.05059 25.6722 8.55485C25.6722 8.0574 25.4715 7.57024 25.1199 7.22031C24.7699 6.86866 24.2828 6.66797 23.7853 6.66797Z" fill="white"/>
</svg>
