<svg width="101" height="125" viewBox="0 0 101 125" fill="none" xmlns="http://www.w3.org/2000/svg">
<rect x="1" y="0.5" width="99" height="124" rx="7.5" fill="white"/>
<rect x="1" y="0.5" width="99" height="124" rx="7.5" stroke="#8FD7FF"/>
<rect x="14.5" y="19" width="35" height="3" rx="1.5" fill="#8FD7FF"/>
<rect x="14.5" y="23" width="25" height="3" rx="1.5" fill="#D2EFFF"/>
<rect x="14.5" y="34" width="36" height="6" rx="1" fill="#D2EFFF"/>
<rect x="14.5" y="42" width="36" height="6" rx="1" fill="#D2EFFF"/>
<rect x="54.5" y="19" width="32" height="37" rx="2" fill="#D2EFFF"/>
<rect x="14.5" y="50" width="36" height="6" rx="3" fill="#47BDFF"/>
<rect x="14.5" y="68" width="22" height="18" rx="2" fill="#D2EFFF"/>
<rect x="39.5" y="68" width="22" height="18" rx="2" fill="#D2EFFF"/>
<rect x="64.5" y="68" width="22" height="18" rx="2" fill="#D2EFFF"/>
<rect x="14.5" y="90" width="72" height="2" rx="1" fill="#D2EFFF"/>
<rect x="14.5" y="94" width="72" height="2" rx="1" fill="#D2EFFF"/>
<rect x="14.5" y="98" width="72" height="2" rx="1" fill="#D2EFFF"/>
<circle cx="92" cy="115.5" r="4.5" fill="#D2EFFF"/>
</svg>
