<svg width="27" height="28" viewBox="0 0 27 28" fill="none" xmlns="http://www.w3.org/2000/svg">
<path fill-rule="evenodd" clip-rule="evenodd" d="M20.235 13.223H20.8564C20.96 13.0159 20.96 12.6016 20.8564 12.1355C20.7528 11.4623 20.5457 11.0998 20.1832 11.0998C19.7689 11.2034 19.7689 11.6694 19.9243 12.3426C19.976 12.7051 20.1314 13.0159 20.2868 13.223H20.235ZM16.9725 13.7409C17.2314 13.8962 17.3868 13.948 17.4903 13.8962L17.4385 13.6373C17.2832 13.4301 17.0243 13.223 16.7135 13.1194C16.4032 12.9867 16.064 12.9361 15.7284 12.9724C15.3929 13.0087 15.0723 13.1306 14.7975 13.3266C14.6421 13.4301 14.435 13.6373 14.4868 13.7409L14.5903 13.7926C14.7457 13.7926 15.2635 13.5855 15.885 13.5337C16.2993 13.5337 16.6618 13.6373 16.9207 13.7409H16.9725ZM16.4028 14.1034C16.0403 14.1034 15.885 14.2587 15.7296 14.3623L15.5225 14.6212V14.7248H15.626L15.885 14.673C16.4028 14.4659 16.7135 14.5176 17.0243 14.5176H17.335V14.4141C17.2832 14.2587 16.8689 13.9998 16.4028 14.1034ZM19.1475 15.2426C19.4064 15.3462 19.6653 15.3462 19.7689 15.1391C19.8207 14.9837 19.7171 14.7248 19.4582 14.6212C19.251 14.4659 18.9403 14.5176 18.8885 14.7248C18.785 14.8801 18.8885 15.1391 19.1475 15.2426ZM20.701 13.8444C20.5457 13.8444 20.3903 14.1034 20.3385 14.3623C20.3385 14.6212 20.4939 14.8801 20.701 14.8801C20.9082 14.8801 21.0635 14.6212 21.0635 14.3623C21.0635 14.1034 20.9082 13.8444 20.7528 13.8444H20.701ZM7.18497 18.7641C7.0814 18.7641 7.02962 18.8159 6.97783 18.7641C6.91352 18.7767 6.84713 18.7739 6.78412 18.7559C6.7211 18.7379 6.66325 18.7052 6.61533 18.6605V18.0391L6.7189 17.9355C6.87426 17.573 7.13319 17.0034 6.82247 16.3819C6.72237 16.1855 6.57559 16.0167 6.395 15.8903C6.21441 15.7639 6.00555 15.6838 5.78676 15.6569C5.37247 15.6051 4.9064 15.7605 4.64747 16.0712C4.1814 16.5891 4.12962 17.2105 4.23319 17.4694L4.33676 17.573C4.38855 17.573 4.5439 17.5212 4.59569 17.3141C4.59569 17.1587 4.69926 17.0034 4.80283 16.7962C4.9064 16.6409 5.06176 16.5373 5.32069 16.4855C5.52783 16.4855 5.73497 16.4855 5.89033 16.5891C6.20105 16.7962 6.30462 17.2105 6.20105 17.573C6.14926 17.7284 5.9939 18.0909 6.04569 18.4016C6.04569 18.9712 6.45997 19.2301 6.77069 19.2301C7.0814 19.2301 7.28855 19.0748 7.39212 18.9712V18.8159C7.34033 18.7641 7.23676 18.8159 7.18497 18.8159V18.7641ZM25.8278 19.6962C25.5689 20.8873 25.051 21.923 24.1707 22.8034C23.6528 23.4248 22.9796 23.9426 22.2546 24.3051L21.0118 24.823C17.6975 25.9105 14.2796 24.7194 13.1921 22.1301C12.8165 21.2113 12.7047 20.2058 12.8694 19.2269C13.0341 18.248 13.4687 17.3345 14.1243 16.5891L14.2796 16.2784L14.176 16.0194C13.71 15.3462 12.2082 14.3105 12.5189 12.1873C12.726 10.7373 14.0725 9.64979 15.2635 9.70157H15.5743L16.9725 9.85693C17.6975 9.85693 18.3707 9.80514 19.1475 9.13193C19.4064 8.92478 19.6135 8.71764 19.976 8.66586H20.2868C20.4421 8.66586 20.6493 8.66586 20.8046 8.82121C21.426 9.2355 21.5296 10.2194 21.5296 10.9444L21.6332 12.6534C21.6332 13.3266 21.8403 13.4301 22.151 13.5337L22.8243 13.7409C23.434 13.8538 24.0046 14.1212 24.4814 14.5176C24.6368 14.7248 24.7403 14.8801 24.7403 15.0873C24.8439 15.8123 24.2225 16.6409 22.5135 17.4694C20.7262 18.264 18.7645 18.585 16.8171 18.4016L16.2993 18.298C15.0046 18.1426 14.3314 19.7998 15.0564 20.8873C15.5743 21.6123 16.8689 22.0784 18.1635 22.0784C21.2189 22.0784 23.4975 20.7837 24.3778 19.6444L24.4296 19.5409C24.4296 19.4373 24.4814 19.4891 24.4296 19.5409C23.7046 19.9551 20.5457 21.923 17.1796 21.3016C17.1796 21.3016 16.8171 21.3016 16.4546 21.0944C16.1439 20.9909 15.5225 20.7319 15.4189 20.0587C18.1635 20.8873 19.8725 20.1105 19.8725 20.1105V20.0587L19.8207 19.9551C19.8207 19.9551 17.5939 20.3176 15.5225 19.5409C15.7296 18.7641 16.351 19.023 17.2314 19.1266C18.8885 19.2301 20.3903 18.9712 21.4778 18.6605C22.41 18.4016 23.6528 17.8319 24.6368 17.1069C24.9475 17.7801 25.1028 18.6087 25.1028 18.6087C25.1028 18.6087 25.3618 18.5569 25.5689 18.6605C25.7243 18.8159 25.8796 19.0748 25.776 19.6962H25.8278ZM10.3957 7.88907C11.4314 6.64621 12.726 5.6105 13.8653 5.04086H13.9171L13.6064 5.86943C13.6064 5.92121 13.6064 5.973 13.6582 5.92121C14.3832 5.40336 15.626 4.8855 16.7135 4.8855C16.7135 4.8855 16.7653 4.8855 16.7135 4.93728C16.5356 5.08812 16.3788 5.26231 16.2475 5.45514H16.2993C17.076 5.45514 18.1635 5.76585 18.8885 6.18014C18.8885 6.18014 18.8885 6.28371 18.785 6.28371C17.3652 5.95872 15.8927 5.93838 14.4645 6.22402C13.0363 6.50966 11.6848 7.0948 10.4993 7.94086C10.3957 7.94086 10.3439 7.94086 10.3957 7.88907ZM5.00997 13.5855C4.08382 13.7702 3.26631 14.309 2.7314 15.0873C2.37042 14.8134 2.04048 14.5008 1.74747 14.1551C0.970688 12.6016 2.62783 9.598 3.8189 7.88907C6.77069 3.74621 11.3278 0.535498 13.5028 1.10514C13.8135 1.20871 14.9528 2.50336 14.9528 2.50336C14.9528 2.50336 12.8814 3.69443 10.9135 5.35157C8.23461 7.51952 6.20903 10.3876 5.06176 13.6373L5.00997 13.5855ZM6.56355 20.6801H6.14926C4.75105 20.6801 3.19747 19.3855 3.04212 17.8837C2.88676 16.2266 3.71533 14.9319 5.2689 14.6212C5.4732 14.579 5.68186 14.5616 5.89033 14.5694C6.7189 14.5694 7.96176 15.2426 8.27247 17.1587C8.5314 18.7123 8.11712 20.4212 6.56355 20.6801ZM25.7243 17.7284L25.5689 17.0551L25.31 16.4337C25.6255 16.0431 25.7798 15.5468 25.7413 15.0461C25.7028 14.5455 25.4744 14.0786 25.1028 13.7409C24.5253 13.2345 23.8315 12.8787 23.0832 12.7051L22.5653 12.6016V10.8409C22.5653 10.4784 22.5135 9.90871 22.3064 9.28728C22.1298 8.58612 21.7727 7.94339 21.2707 7.423C22.5653 6.07657 23.3421 4.57478 23.3421 3.28014C23.3421 0.897999 20.3385 0.172998 16.6618 1.72657L15.885 1.9855L14.5385 0.587284C10.3439 -3.03772 -2.75788 11.5659 1.43676 15.0873L2.31712 15.9159C2.08917 16.5811 2.01828 17.2901 2.10997 17.9873C2.23125 19.0109 2.72978 19.9526 3.50819 20.6284C4.25851 21.3224 5.23159 21.7263 6.25283 21.7676C7.10258 23.6327 8.47404 25.2119 10.2016 26.3146C11.9292 27.4174 13.9391 27.9964 15.9885 27.9819C20.6493 28.1373 24.6368 25.9105 26.2421 21.923C26.3457 21.6641 26.8118 20.3694 26.8118 19.3337C26.8118 18.1944 26.1903 17.7284 25.776 17.7284H25.7243Z" fill="black"/>
</svg>
