<svg width="32" height="32" viewBox="0 0 32 32" fill="none" xmlns="http://www.w3.org/2000/svg">
<path d="M9.8375 21.2345L4.603 16L9.8375 10.7655L11.0845 12.0578L7.14231 16L11.0845 19.9422L9.8375 21.2345ZM22.1625 21.2345L20.9155 19.9422L24.8577 16L20.9155 12.0578L22.1625 10.7655L27.397 16L22.1625 21.2345ZM4.42719 30.5C3.59344 30.5 2.89744 30.2209 2.33919 29.6626C1.77973 29.1032 1.5 28.4066 1.5 27.5728V21.4375H3.3125V27.5728C3.3125 27.8507 3.4285 28.1063 3.6605 28.3395C3.89371 28.5715 4.14927 28.6875 4.42719 28.6875H10.5625V30.5H4.42719ZM21.4375 30.5V28.6875H27.5728C27.8507 28.6875 28.1063 28.5715 28.3395 28.3395C28.5715 28.1063 28.6875 27.8507 28.6875 27.5728V21.4375H30.5V27.5728C30.5 28.4066 30.2209 29.1026 29.6626 29.6608C29.1032 30.2203 28.4066 30.5 27.5728 30.5H21.4375ZM1.5 10.5625V4.42719C1.5 3.59344 1.77973 2.89744 2.33919 2.33919C2.89744 1.77973 3.59344 1.5 4.42719 1.5H10.5625V3.3125H4.42719C4.14927 3.3125 3.89371 3.4285 3.6605 3.6605C3.4285 3.89371 3.3125 4.14927 3.3125 4.42719V10.5625H1.5ZM28.6875 10.5625V4.42719C28.6875 4.14927 28.5715 3.89371 28.3395 3.6605C28.1063 3.4285 27.8507 3.3125 27.5728 3.3125H21.4375V1.5H27.5728C28.4066 1.5 29.1026 1.77973 29.6608 2.33919C30.2203 2.89744 30.5 3.59344 30.5 4.42719V10.5625H28.6875Z" fill="white"/>
</svg>
