<svg width="28" height="21" viewBox="0 0 28 21" fill="none" xmlns="http://www.w3.org/2000/svg">
<path fill-rule="evenodd" clip-rule="evenodd" d="M19.3639 0.326005C21.8039 0.158005 23.6892 1.58201 24.9439 3.22467C26.2079 4.88201 27.0785 7.04601 27.5572 9.17401C28.0332 11.302 28.1612 13.5887 27.7652 15.538C27.3852 17.41 26.3705 19.5513 24.0759 20.238C21.9159 20.8833 20.0225 19.9447 18.6732 18.8087C17.3185 17.6687 16.1719 16.0713 15.2705 14.574C14.8489 13.8705 14.4531 13.1518 14.0839 12.4193C13.715 13.1513 13.3196 13.8695 12.8985 14.5727C11.9972 16.0713 10.8505 17.6687 9.49585 18.8087C8.14519 19.9447 6.25319 20.8833 4.09319 20.238C1.79852 19.5513 0.783854 17.4113 0.403854 15.538C0.0091871 13.5887 0.137187 11.302 0.613187 9.17401C1.09052 7.04601 1.96119 4.88067 3.22652 3.22467C4.47985 1.58201 6.36519 0.158005 8.80519 0.326005C11.0932 0.486005 12.7559 2.03667 13.7919 3.35134L14.0852 3.73667L14.3772 3.35001C15.4132 2.03667 17.0759 0.484672 19.3639 0.326005ZM8.52785 4.31667C7.96785 4.27801 7.23452 4.56467 6.40519 5.65267C5.58652 6.72601 4.90652 8.31001 4.51585 10.05C4.12652 11.79 4.06919 13.4887 4.32385 14.7433C4.54385 15.8233 4.89719 16.2113 5.11319 16.3473L5.20385 16.3927L5.23985 16.406C5.54919 16.4993 6.05852 16.4727 6.91985 15.7473C7.77985 15.0247 8.65719 13.8633 9.47185 12.5113C9.83452 11.9073 10.1719 11.2887 10.4745 10.694L10.8212 9.99401L11.1319 9.33134L11.4065 8.72067L11.6399 8.17801L11.8305 7.71667C11.5725 7.1985 11.2771 6.69984 10.9465 6.22467C10.0879 5.00334 9.22652 4.36601 8.52785 4.31801V4.31667ZM19.6412 4.31667C18.9425 4.36601 18.0812 5.00334 17.2225 6.22467C16.8919 6.69983 16.5965 7.19848 16.3385 7.71667L16.6412 8.44067L16.8945 9.01934L17.0372 9.33134L17.3492 9.99401L17.6959 10.694C17.9985 11.2887 18.3345 11.9073 18.6972 12.5113C19.5119 13.8633 20.3905 15.0247 21.2479 15.7473C22.0492 16.422 22.5452 16.4913 22.8612 16.4233L22.9305 16.406C23.1039 16.3527 23.5745 16.074 23.8452 14.742C24.0985 13.4887 24.0439 11.79 23.6532 10.0487C23.2639 8.31001 22.5839 6.72601 21.7639 5.65267C20.9332 4.56467 20.2012 4.27934 19.6412 4.31667Z" fill="white"/>
</svg>
