<svg width="101" height="125" viewBox="0 0 101 125" fill="none" xmlns="http://www.w3.org/2000/svg">
<rect x="1" y="0.5" width="99" height="124" rx="7.5" fill="white"/>
<rect x="1" y="0.5" width="99" height="124" rx="7.5" stroke="#8FD7FF"/>
<path d="M49.3331 76.334C46.4066 76.3428 43.5836 75.2515 41.424 73.2763C39.2644 71.3012 37.9261 68.5866 37.6744 65.6708C37.4226 62.7551 38.276 59.8513 40.0651 57.5352C41.8541 55.2192 44.4484 53.6602 47.3331 53.1673C56.8331 51.334 59.3331 50.4673 62.6665 46.334C64.3331 49.6673 65.9998 53.3007 65.9998 59.6673C65.9998 68.834 58.0331 76.334 49.3331 76.334Z" stroke="#47BDFF" stroke-width="2.5" stroke-linecap="round" stroke-linejoin="round"/>
<path d="M34.3333 78C34.3333 73 37.4166 69.0667 42.7999 68C46.8333 67.2 50.9999 64.6667 52.6666 63" stroke="#47BDFF" stroke-width="2.5" stroke-linecap="round" stroke-linejoin="round"/>
</svg>
