<svg width="32" height="22" viewBox="0 0 32 22" fill="none" xmlns="http://www.w3.org/2000/svg">
<g clip-path="url(#clip0_5182_12745)">
<path d="M10.1136 21.1648C8.05143 21.1648 6.48698 20.6315 5.42031 19.5648C4.35365 18.4981 3.82031 16.9408 3.82031 14.8928V14.6932C3.82031 14.2808 3.94121 13.9536 4.18298 13.7119C4.42477 13.4559 4.75187 13.3279 5.16431 13.3279C5.57677 13.3279 5.90387 13.4559 6.14565 13.7119C6.38743 13.9536 6.50831 14.2808 6.50831 14.6932V15.0421C6.50831 16.3364 6.8141 17.3177 7.42565 17.9861C8.03721 18.6404 8.93321 18.9675 10.1136 18.9675C11.2799 18.9675 12.1688 18.6333 12.7803 17.9648C13.3919 17.2964 13.6976 16.3221 13.6976 15.0421V7.1915C13.6976 6.77906 13.8185 6.45194 14.0603 6.21017C14.3021 5.95417 14.6292 5.82617 15.0416 5.82617C15.4541 5.82617 15.7812 5.95417 16.0229 6.21017C16.2648 6.45194 16.3856 6.77906 16.3856 7.1915V14.8928C16.3856 16.9267 15.8523 18.484 14.7856 19.5648C13.7189 20.6315 12.1616 21.1648 10.1136 21.1648Z" fill="#009EF7"/>
<path d="M20.9171 21.1015C20.5047 21.1015 20.1704 20.9807 19.9144 20.7389C19.6727 20.4829 19.5518 20.1415 19.5518 19.7149V7.23493C19.5518 6.82249 19.6655 6.50249 19.8931 6.27493C20.1348 6.04737 20.462 5.93359 20.8744 5.93359H26.1224C27.7295 5.93359 28.9811 6.33893 29.8771 7.14959C30.7731 7.94603 31.2211 9.06959 31.2211 10.5203C31.2211 11.9709 30.7731 13.1016 29.8771 13.9122C28.9811 14.7229 27.7295 15.1282 26.1224 15.1282H22.3038V19.7149C22.3038 20.1415 22.1758 20.4829 21.9198 20.7389C21.678 20.9807 21.3438 21.1015 20.9171 21.1015ZM25.7811 13.0163C27.6727 13.0163 28.6184 12.1914 28.6184 10.5416C28.6184 8.89182 27.6727 8.06693 25.7811 8.06693H22.3038V13.0163H25.7811Z" fill="#009EF7"/>
<path d="M5.20199 12.0862C5.52724 12.0862 6.19497 11.8391 6.0986 11.8391L6.53228 11.4861V4.87594L8.21278 6.60357C8.42963 6.88221 8.75488 6.99368 9.13436 6.99368C9.45961 6.99368 9.78487 6.88221 10.0017 6.60357C10.5438 6.102 10.5438 5.26606 10.0017 4.76449L6.0986 0.751956C5.61072 0.19466 4.79757 0.19466 4.30968 0.751956L0.406573 4.76449C-0.135524 5.26606 -0.135524 6.102 0.406573 6.60357C0.894461 7.16086 1.70761 7.16086 2.19549 6.60357L3.93021 4.87594V11.4304C3.93021 11.4304 4.26468 11.8082 4.30968 11.8391C4.67043 12.0862 4.82252 12.0862 5.20199 12.0862Z" fill="#009EF7"/>
</g>
<defs>
<clipPath id="clip0_5182_12745">
<rect width="32" height="21.3333" fill="white" transform="translate(0 0.333984)"/>
</clipPath>
</defs>
</svg>
