<svg width="100" height="125" viewBox="0 0 100 125" fill="none" xmlns="http://www.w3.org/2000/svg">
<rect x="0.5" y="0.5" width="99" height="124" rx="7.5" fill="white"/>
<rect x="0.5" y="0.5" width="99" height="124" rx="7.5" stroke="#8FD7FF"/>
<path d="M24.6666 59H30C30.3786 59 30.696 59.1271 30.952 59.3814C31.2062 59.6374 31.3333 59.9547 31.3333 60.3334C31.3333 60.712 31.2062 61.0294 30.952 61.2854C30.696 61.5396 30.3786 61.6667 30 61.6667H24.6666C24.288 61.6667 23.9706 61.5396 23.7146 61.2854C23.4604 61.0294 23.3333 60.712 23.3333 60.3334C23.3333 59.9547 23.4604 59.6374 23.7146 59.3814C23.9706 59.1271 24.288 59 24.6666 59ZM30.5333 73.912L34.2453 70.2C34.5049 69.9405 34.8115 69.8045 35.1653 69.792C35.5173 69.7796 35.84 69.9156 36.1333 70.2C36.4266 70.4934 36.576 70.8107 36.5813 71.152C36.5866 71.4916 36.4426 71.808 36.1493 72.1014L32.4346 75.816C32.1751 76.0756 31.8666 76.2116 31.5093 76.224C31.1538 76.2347 30.8284 76.0933 30.5333 75.8C30.2489 75.5067 30.1049 75.192 30.1013 74.856C30.096 74.5218 30.24 74.2071 30.5333 73.912ZM34.2453 50.4667L30.5333 46.7547C30.2738 46.4951 30.1378 46.1885 30.1253 45.8347C30.1129 45.4827 30.2489 45.16 30.5333 44.8667C30.8266 44.5734 31.144 44.424 31.4853 44.4187C31.8249 44.4134 32.1413 44.5574 32.4346 44.8507L36.1493 48.5654C36.4089 48.8249 36.5449 49.1334 36.5573 49.4907C36.568 49.8462 36.4266 50.1716 36.1333 50.4667C35.84 50.7511 35.5253 50.896 35.1893 50.9014C34.8551 50.9049 34.5404 50.76 34.2453 50.4667ZM61.928 79.032L51.384 68.488L49.9493 72.9494C49.8604 73.1911 49.7191 73.3814 49.5253 73.52C49.3315 73.6587 49.1182 73.728 48.8853 73.728C48.6524 73.728 48.448 73.6569 48.272 73.5147C48.0978 73.3707 47.9662 73.1769 47.8773 72.9334L43.888 59.8134C43.7991 59.4934 43.7929 59.2071 43.8693 58.9547C43.9458 58.7005 44.0951 58.4622 44.3173 58.24C44.5395 58.0178 44.7778 57.8685 45.032 57.792C45.2844 57.7156 45.5715 57.7218 45.8933 57.8107L59.3493 61.8507C59.5911 61.9396 59.7813 62.0729 59.92 62.2507C60.0586 62.4249 60.128 62.6294 60.128 62.864C60.128 63.0987 60.0702 63.3022 59.9546 63.4747C59.8373 63.6507 59.6578 63.7831 59.416 63.872L54.8 65.544L64.9013 75.6454C65.3333 76.0774 65.5493 76.5805 65.5493 77.1547C65.5493 77.7289 65.3333 78.2311 64.9013 78.6614L64.5333 79.032C64.1707 79.3929 63.7369 79.5734 63.232 79.5734C62.7253 79.5734 62.2906 79.3929 61.928 79.032ZM44.9733 45.6667V40.3334C44.9733 39.9547 45.1013 39.6374 45.3573 39.3814C45.6133 39.1254 45.9298 38.9982 46.3066 39C46.6871 39 47.0044 39.1271 47.2586 39.3814C47.5129 39.6356 47.64 39.9529 47.64 40.3334V45.6667C47.64 46.0454 47.5129 46.3627 47.2586 46.6187C47.0044 46.8747 46.6871 47.0018 46.3066 47C45.928 47 45.6115 46.8729 45.3573 46.6187C45.1031 46.3645 44.9751 46.0471 44.9733 45.6667ZM56.4666 48.5654L60.1946 44.8347C60.4435 44.5858 60.7466 44.4507 61.104 44.4294C61.4613 44.4062 61.7875 44.5414 62.0826 44.8347C62.3671 45.1191 62.5111 45.4311 62.5146 45.7707C62.52 46.112 62.3813 46.4294 62.0986 46.7227L58.368 50.4667C58.1191 50.7262 57.8169 50.8622 57.4613 50.8747C57.1022 50.8871 56.776 50.7511 56.4826 50.4667C56.1875 50.1734 56.0373 49.856 56.032 49.5147C56.0284 49.1751 56.1733 48.8587 56.4666 48.5654Z" fill="#47BDFF"/>
</svg>
