<svg width="101" height="125" viewBox="0 0 101 125" fill="none" xmlns="http://www.w3.org/2000/svg">
<rect x="1" y="0.5" width="99" height="124" rx="7.5" fill="white"/>
<rect x="1" y="0.5" width="99" height="124" rx="7.5" stroke="#8FD7FF"/>
<path d="M37.4167 57.3672C37.1735 56.2714 37.2108 55.1319 37.5253 54.0544C37.8398 52.9769 38.4213 51.9962 39.2159 51.2034C40.0104 50.4105 40.9923 49.8311 42.0704 49.5188C43.1486 49.2066 44.2881 49.1716 45.3834 49.4172C45.9863 48.4743 46.8167 47.6984 47.7983 47.161C48.7799 46.6235 49.881 46.3418 51.0001 46.3418C52.1192 46.3418 53.2202 46.6235 54.2018 47.161C55.1834 47.6984 56.0139 48.4743 56.6167 49.4172C57.7137 49.1705 58.8552 49.2053 59.9351 49.5183C61.015 49.8314 61.9981 50.4124 62.7932 51.2074C63.5882 52.0024 64.1692 52.9856 64.4822 54.0655C64.7952 55.1454 64.83 56.2869 64.5834 57.3838C65.5262 57.9867 66.3021 58.8172 66.8396 59.7987C67.3771 60.7803 67.6588 61.8814 67.6588 63.0005C67.6588 64.1196 67.3771 65.2207 66.8396 66.2022C66.3021 67.1838 65.5262 68.0143 64.5834 68.6172C64.829 69.7124 64.794 70.852 64.4818 71.9301C64.1695 73.0083 63.5901 73.9902 62.7972 74.7847C62.0043 75.5792 61.0237 76.1607 59.9462 76.4752C58.8687 76.7897 57.7292 76.8271 56.6334 76.5838C56.0313 77.5303 55.2002 78.3095 54.217 78.8494C53.2337 79.3892 52.1301 79.6722 51.0084 79.6722C49.8867 79.6722 48.7831 79.3892 47.7999 78.8494C46.8166 78.3095 45.9855 77.5303 45.3834 76.5838C44.2881 76.8294 43.1486 76.7944 42.0704 76.4822C40.9923 76.1699 40.0104 75.5905 39.2159 74.7976C38.4213 74.0047 37.8398 73.0241 37.5253 71.9466C37.2108 70.8691 37.1735 69.7296 37.4167 68.6338C36.4667 68.0326 35.6841 67.2008 35.1418 66.2158C34.5995 65.2309 34.3152 64.1248 34.3152 63.0005C34.3152 61.8761 34.5995 60.7701 35.1418 59.7851C35.6841 58.8002 36.4667 57.9684 37.4167 57.3672Z" stroke="#47BDFF" stroke-width="2.5" stroke-linecap="round" stroke-linejoin="round"/>
<path d="M57.6668 56.3333H47.6668C46.7828 56.3333 45.9349 56.6845 45.3098 57.3096C44.6847 57.9348 44.3335 58.7826 44.3335 59.6667C44.3335 60.5507 44.6847 61.3986 45.3098 62.0237C45.9349 62.6488 46.7828 63 47.6668 63H54.3335C55.2176 63 56.0654 63.3512 56.6905 63.9763C57.3156 64.6014 57.6668 65.4493 57.6668 66.3333C57.6668 67.2174 57.3156 68.0652 56.6905 68.6904C56.0654 69.3155 55.2176 69.6667 54.3335 69.6667H44.3335M51.0002 73V53" stroke="#47BDFF" stroke-width="2.5" stroke-linecap="round" stroke-linejoin="round"/>
</svg>
