<svg width="24" height="30" viewBox="0 0 24 30" fill="none" xmlns="http://www.w3.org/2000/svg">
<path fill-rule="evenodd" clip-rule="evenodd" d="M14.9006 0.822266C15.6697 0.822266 16.4074 1.1278 16.9512 1.67167C17.4951 2.21553 17.8006 2.95317 17.8006 3.7223C17.8014 4.72443 18.1476 5.69565 18.781 6.47222C19.4144 7.24879 20.2962 7.7832 21.2778 7.98536C22.0315 8.13842 22.6936 8.58464 23.1184 9.22585C23.5431 9.86707 23.6958 10.6508 23.5427 11.4045C23.3896 12.1583 22.9434 12.8203 22.3022 13.2451C21.661 13.6699 20.8773 13.8225 20.1236 13.6694C19.3206 13.5061 18.5406 13.2456 17.8006 12.8937V21.1225C17.8006 22.7498 17.3441 24.3444 16.4831 25.7253C15.6222 27.1061 14.3912 28.2178 12.9301 28.9341C11.4689 29.6504 9.8362 29.9425 8.21735 29.7773C6.59849 29.6121 5.05841 28.9962 3.77205 27.9996C2.4857 27.003 1.50463 25.6656 0.940309 24.1393C0.375985 22.613 0.251023 20.9591 0.579617 19.3653C0.908212 17.7716 1.67719 16.3019 2.7992 15.1234C3.92121 13.9448 5.35127 13.1045 6.92693 12.6979C7.66704 12.5194 8.44766 12.6391 9.10027 13.0312C9.75289 13.4233 10.2252 14.0562 10.4151 14.7935C10.6051 15.5307 10.4976 16.3131 10.1157 16.9718C9.73381 17.6304 9.10825 18.1124 8.37405 18.3138C7.69424 18.4942 7.10304 18.9153 6.71032 19.4988C6.31759 20.0822 6.15006 20.7884 6.23884 21.4861C6.32763 22.1839 6.6667 22.8256 7.19304 23.2921C7.71938 23.7586 8.39719 24.0182 9.10051 24.0226C9.86965 24.0226 10.6073 23.717 11.1511 23.1732C11.695 22.6293 12.0005 21.8917 12.0005 21.1225V3.7223C12.0005 2.95317 12.3061 2.21553 12.85 1.67167C13.3938 1.1278 14.1314 0.822266 14.9006 0.822266Z" fill="white"/>
</svg>
