<svg width="275" height="59" viewBox="0 0 275 59" fill="none" xmlns="http://www.w3.org/2000/svg">
<path d="M20.252 41.8984C16.1226 41.8984 12.9899 40.8257 10.854 38.6802C8.71805 36.5348 7.65009 33.4024 7.65009 29.2831V28.8817C7.65009 28.0522 7.89214 27.3941 8.3763 26.9078C8.86043 26.3929 9.51544 26.1355 10.3413 26.1355C11.1672 26.1355 11.8222 26.3929 12.3064 26.9078C12.7905 27.3941 13.0326 28.0522 13.0326 28.8817V29.5835C13.0326 32.1867 13.6449 34.1606 14.8695 35.505C16.0941 36.8209 17.8883 37.4788 20.252 37.4788C22.5873 37.4788 24.3672 36.8067 25.5918 35.462C26.8165 34.1176 27.4287 32.158 27.4287 29.5835V13.7931C27.4287 12.9635 27.6709 12.3055 28.1549 11.8192C28.639 11.3043 29.2942 11.0469 30.12 11.0469C30.9458 11.0469 31.601 11.3043 32.085 11.8192C32.5691 12.3055 32.8112 12.9635 32.8112 13.7931V29.2831C32.8112 33.374 31.7433 36.5063 29.6074 38.6802C27.4714 40.8257 24.353 41.8984 20.252 41.8984Z" fill="white"/>
<path d="M41.8846 41.77C41.0586 41.77 40.3895 41.527 39.8769 41.0405C39.3926 40.5256 39.1507 39.8391 39.1507 38.9809V13.8792C39.1507 13.0496 39.3784 12.406 39.8342 11.9483C40.3182 11.4906 40.9731 11.2617 41.7992 11.2617H52.3079C55.526 11.2617 58.0322 12.077 59.8264 13.7075C61.6206 15.3095 62.5177 17.5694 62.5177 20.4872C62.5177 23.405 61.6206 25.6792 59.8264 27.3096C58.0322 28.9402 55.526 29.7554 52.3079 29.7554H44.6613V38.9809C44.6613 39.8391 44.405 40.5256 43.8924 41.0405C43.4081 41.527 42.739 41.77 41.8846 41.77ZM51.6244 25.5075C55.412 25.5075 57.306 23.8484 57.306 20.5301C57.306 17.2118 55.412 15.5526 51.6244 15.5526H44.6613V25.5075H51.6244Z" fill="white"/>
<path d="M10.4166 23.6379C11.0679 23.6379 12.405 23.1409 12.212 23.1409L13.0804 22.431V9.13553L16.4455 12.6104C16.8797 13.1709 17.531 13.3951 18.2909 13.3951C18.9422 13.3951 19.5935 13.1709 20.0277 12.6104C21.1132 11.6016 21.1132 9.92021 20.0277 8.91136L12.212 0.840694C11.2351 -0.280231 9.60679 -0.280231 8.62982 0.840694L0.814133 8.91136C-0.271378 9.92021 -0.271378 11.6016 0.814133 12.6104C1.79109 13.7313 3.41937 13.7313 4.39631 12.6104L7.86996 9.13553V22.3189C7.86996 22.3189 8.53971 23.0789 8.62982 23.1409C9.35219 23.6379 9.65674 23.6379 10.4166 23.6379Z" fill="white"/>
<path d="M86.4186 43.1232C86.0197 43.1232 85.6924 42.9945 85.4361 42.737C85.2081 42.4795 85.0944 42.1505 85.0944 41.7501V13.9879C85.0944 13.616 85.2225 13.3014 85.4788 13.0439C85.7634 12.7865 86.1052 12.6577 86.5041 12.6577H102.31C102.68 12.6577 102.965 12.7578 103.164 12.9581C103.392 13.1583 103.506 13.4444 103.506 13.8163C103.506 14.1882 103.392 14.4742 103.164 14.6745C102.965 14.8461 102.68 14.9319 102.31 14.9319H87.7429V26.3886H101.456C101.826 26.3886 102.11 26.4887 102.31 26.689C102.538 26.8893 102.652 27.1752 102.652 27.5472C102.652 27.9191 102.538 28.205 102.31 28.4054C102.11 28.6057 101.826 28.7057 101.456 28.7057H87.7429V41.7501C87.7429 42.1792 87.6289 42.5225 87.4012 42.7799C87.1731 43.0087 86.8458 43.1232 86.4186 43.1232ZM120.197 43.2519C116.353 43.2519 113.434 42.2363 111.44 40.2054C109.475 38.1744 108.493 35.185 108.493 31.2374V13.8163C108.493 13.3872 108.607 13.0582 108.834 12.8294C109.091 12.5719 109.418 12.4432 109.817 12.4432C110.216 12.4432 110.529 12.5719 110.757 12.8294C111.013 13.0582 111.141 13.3872 111.141 13.8163V31.5377C111.141 37.7738 114.16 40.8919 120.197 40.8919C123.188 40.8919 125.438 40.1053 126.947 38.5319C128.485 36.9585 129.254 34.6272 129.254 31.5377V13.8163C129.254 13.4158 129.368 13.0868 129.595 12.8294C129.852 12.5719 130.179 12.4432 130.578 12.4432C130.977 12.4432 131.29 12.5719 131.518 12.8294C131.746 13.0582 131.86 13.3872 131.86 13.8163V31.2374C131.86 35.185 130.863 38.1744 128.869 40.2054C126.904 42.2363 124.014 43.2519 120.197 43.2519ZM161.836 12.4432C162.235 12.4432 162.534 12.5719 162.734 12.8294C162.961 13.0582 163.075 13.3872 163.075 13.8163V41.7501C163.075 42.1505 162.961 42.4795 162.734 42.737C162.506 42.9945 162.192 43.1232 161.794 43.1232C161.367 43.1232 160.982 42.9086 160.64 42.4795L141.93 17.1203V41.7501C141.93 42.1505 141.816 42.4795 141.588 42.737C141.36 42.9945 141.061 43.1232 140.691 43.1232C140.264 43.1232 139.95 43.0087 139.751 42.7799C139.552 42.5225 139.452 42.1792 139.452 41.7501V13.8163C139.452 13.4158 139.566 13.0868 139.794 12.8294C140.05 12.5719 140.392 12.4432 140.819 12.4432C141.274 12.4432 141.645 12.6577 141.93 13.0868L160.598 38.4032V13.8163C160.598 13.4158 160.711 13.0868 160.939 12.8294C161.167 12.5719 161.466 12.4432 161.836 12.4432ZM193.249 12.4432C193.648 12.4432 193.947 12.5719 194.147 12.8294C194.374 13.0582 194.488 13.3872 194.488 13.8163V41.7501C194.488 42.1505 194.374 42.4795 194.147 42.737C193.919 42.9945 193.605 43.1232 193.207 43.1232C192.78 43.1232 192.395 42.9086 192.053 42.4795L173.343 17.1203V41.7501C173.343 42.1505 173.229 42.4795 173.001 42.737C172.773 42.9945 172.474 43.1232 172.104 43.1232C171.677 43.1232 171.363 43.0087 171.164 42.7799C170.965 42.5225 170.865 42.1792 170.865 41.7501V13.8163C170.865 13.4158 170.979 13.0868 171.207 12.8294C171.463 12.5719 171.805 12.4432 172.232 12.4432C172.687 12.4432 173.058 12.6577 173.343 13.0868L192.011 38.4032V13.8163C192.011 13.4158 192.124 13.0868 192.352 12.8294C192.58 12.5719 192.879 12.4432 193.249 12.4432ZM203.688 42.9086C203.289 42.9086 202.947 42.7799 202.662 42.5225C202.406 42.265 202.278 41.9504 202.278 41.5785V13.9879C202.278 13.616 202.406 13.3014 202.662 13.0439C202.947 12.7865 203.289 12.6577 203.688 12.6577H219.921C220.291 12.6577 220.576 12.7578 220.775 12.9581C221.003 13.1583 221.117 13.4444 221.117 13.8163C221.117 14.1595 221.003 14.4313 220.775 14.6315C220.576 14.8318 220.291 14.9319 219.921 14.9319H204.884V26.3886H219.066C219.437 26.3886 219.721 26.4887 219.921 26.689C220.148 26.8893 220.262 27.1752 220.262 27.5472C220.262 27.9191 220.148 28.205 219.921 28.4054C219.721 28.6057 219.437 28.7057 219.066 28.7057H204.884V40.6345H219.921C220.291 40.6345 220.576 40.7345 220.775 40.9348C221.003 41.1065 221.117 41.3781 221.117 41.7501C221.117 42.1221 221.003 42.4079 220.775 42.6083C220.576 42.8086 220.291 42.9086 219.921 42.9086H203.688ZM228.383 42.9086C228.013 42.9086 227.686 42.7941 227.401 42.5654C227.144 42.3366 227.016 42.0505 227.016 41.7072V13.8163C227.016 13.4158 227.13 13.0868 227.358 12.8294C227.614 12.5719 227.942 12.4432 228.341 12.4432C228.768 12.4432 229.095 12.5719 229.323 12.8294C229.551 13.0582 229.665 13.3872 229.665 13.8163V40.5915H244.275C244.645 40.5915 244.93 40.6916 245.129 40.8919C245.357 41.0922 245.471 41.3781 245.471 41.7501C245.471 42.1221 245.357 42.4079 245.129 42.6083C244.93 42.8086 244.645 42.9086 244.275 42.9086H228.383ZM258.271 43.2519C256.164 43.2519 254.128 42.9228 252.162 42.265C250.226 41.5785 248.702 40.6631 247.592 39.5188C247.221 39.2042 247.036 38.7894 247.036 38.2745C247.036 37.9599 247.122 37.6879 247.293 37.4592C247.492 37.2304 247.706 37.1159 247.933 37.1159C248.218 37.1159 248.546 37.2588 248.916 37.545C251.593 39.7763 254.711 40.8919 258.271 40.8919C260.863 40.8919 262.856 40.377 264.252 39.3472C265.676 38.2887 266.388 36.8013 266.388 34.8846C266.388 33.769 266.046 32.8679 265.362 32.1814C264.679 31.4948 263.81 30.9657 262.757 30.5937C261.703 30.1933 260.293 29.7927 258.528 29.3923C256.192 28.8774 254.298 28.3482 252.846 27.8046C251.422 27.261 250.212 26.4458 249.215 25.3588C248.218 24.2432 247.72 22.7557 247.72 20.8963C247.72 19.2085 248.161 17.721 249.044 16.4337C249.955 15.1178 251.223 14.1023 252.846 13.3872C254.469 12.672 256.335 12.3145 258.442 12.3145C260.407 12.3145 262.258 12.6434 263.996 13.3014C265.733 13.9307 267.172 14.8461 268.309 16.0475C268.68 16.4194 268.865 16.8342 268.865 17.2919C268.865 17.6066 268.766 17.8783 268.566 18.1072C268.395 18.336 268.197 18.4505 267.967 18.4505C267.684 18.4505 267.356 18.3074 266.986 18.0214C265.448 16.7627 264.052 15.8902 262.799 15.4039C261.575 14.9176 260.122 14.6745 258.442 14.6745C255.908 14.6745 253.928 15.218 252.504 16.305C251.08 17.392 250.368 18.9082 250.368 20.8534C250.368 22.0262 250.681 22.9845 251.308 23.7283C251.935 24.4434 252.746 25.0155 253.743 25.4446C254.768 25.8737 256.078 26.2885 257.673 26.689L258.784 26.9465C261.091 27.5185 262.913 28.0479 264.252 28.5341C265.59 29.0203 266.715 29.7785 267.626 30.8083C268.566 31.8094 269.035 33.1683 269.035 34.8846C269.035 36.5152 268.582 37.9741 267.668 39.2614C266.786 40.5199 265.519 41.5069 263.867 42.2221C262.244 42.9086 260.379 43.2519 258.271 43.2519Z" fill="#2B2C33"/>
</svg>
