<svg width="103" height="22" viewBox="0 0 103 22" fill="none" xmlns="http://www.w3.org/2000/svg">
<path d="M7.58523 15.6231C6.03857 15.6231 4.86523 15.2231 4.06523 14.4231C3.26523 13.6231 2.86523 12.4551 2.86523 10.9191V10.7694C2.86523 10.4601 2.9559 10.2147 3.13723 10.0334C3.31857 9.8414 3.5639 9.7454 3.87323 9.7454C4.18257 9.7454 4.4279 9.8414 4.60923 10.0334C4.79057 10.2147 4.88123 10.4601 4.88123 10.7694V11.0311C4.88123 12.0018 5.11057 12.7378 5.56923 13.2391C6.0279 13.7298 6.6999 13.9751 7.58523 13.9751C8.4599 13.9751 9.12657 13.7245 9.58523 13.2231C10.0439 12.7218 10.2732 11.9911 10.2732 11.0311V5.14314C10.2732 4.83381 10.3639 4.58847 10.5452 4.40714C10.7266 4.21514 10.9719 4.11914 11.2812 4.11914C11.5906 4.11914 11.8359 4.21514 12.0172 4.40714C12.1986 4.58847 12.2892 4.83381 12.2892 5.14314V10.9191C12.2892 12.4445 11.8892 13.6125 11.0892 14.4231C10.2892 15.2231 9.12123 15.6231 7.58523 15.6231Z" fill="#009EF7"/>
<path d="M15.6881 15.5752C15.3788 15.5752 15.1281 15.4846 14.9361 15.3032C14.7548 15.1112 14.6641 14.8552 14.6641 14.5352V5.17522C14.6641 4.86589 14.7494 4.62589 14.9201 4.45522C15.1014 4.28455 15.3468 4.19922 15.6561 4.19922H19.5921C20.7974 4.19922 21.7361 4.50322 22.4081 5.11122C23.0801 5.70855 23.4161 6.55122 23.4161 7.63922C23.4161 8.72722 23.0801 9.57522 22.4081 10.1832C21.7361 10.7912 20.7974 11.0952 19.5921 11.0952H16.7281V14.5352C16.7281 14.8552 16.6321 15.1112 16.4401 15.3032C16.2588 15.4846 16.0081 15.5752 15.6881 15.5752ZM19.3361 9.51122C20.7548 9.51122 21.4641 8.89255 21.4641 7.65522C21.4641 6.41789 20.7548 5.79922 19.3361 5.79922H16.7281V9.51122H19.3361Z" fill="#009EF7"/>
<path d="M3.90149 8.81413C4.14543 8.81413 4.64623 8.62881 4.57395 8.62881L4.89921 8.36409V3.40647L6.15959 4.70219C6.32222 4.91117 6.56616 4.99477 6.85077 4.99477C7.09471 4.99477 7.33865 4.91117 7.50128 4.70219C7.90786 4.32601 7.90786 3.69906 7.50128 3.32288L4.57395 0.313479C4.20804 -0.104493 3.59818 -0.104493 3.23226 0.313479L0.30493 3.32288C-0.101643 3.69906 -0.101643 4.32601 0.30493 4.70219C0.670846 5.12016 1.28071 5.12016 1.64662 4.70219L2.94766 3.40647V8.32229C2.94766 8.32229 3.19851 8.60569 3.23226 8.62881C3.50282 8.81413 3.61689 8.81413 3.90149 8.81413Z" fill="#009EF7"/>
<path d="M32.3671 16.0798C32.2177 16.0798 32.0951 16.0318 31.9991 15.9358C31.9137 15.8398 31.8711 15.7171 31.8711 15.5678V5.2158C31.8711 5.07713 31.9191 4.9598 32.0151 4.8638C32.1217 4.7678 32.2497 4.7198 32.3991 4.7198H38.3191C38.4577 4.7198 38.5644 4.75713 38.6391 4.8318C38.7244 4.90647 38.7671 5.01313 38.7671 5.1518C38.7671 5.29047 38.7244 5.39713 38.6391 5.4718C38.5644 5.5358 38.4577 5.5678 38.3191 5.5678H32.8631V9.8398H37.9991C38.1377 9.8398 38.2444 9.87713 38.3191 9.9518C38.4044 10.0265 38.4471 10.1331 38.4471 10.2718C38.4471 10.4105 38.4044 10.5171 38.3191 10.5918C38.2444 10.6665 38.1377 10.7038 37.9991 10.7038H32.8631V15.5678C32.8631 15.7278 32.8204 15.8558 32.7351 15.9518C32.6497 16.0371 32.5271 16.0798 32.3671 16.0798ZM45.0188 16.1278C43.5788 16.1278 42.4855 15.7491 41.7388 14.9918C41.0028 14.2345 40.6348 13.1198 40.6348 11.6478V5.1518C40.6348 4.9918 40.6775 4.86913 40.7628 4.7838C40.8588 4.6878 40.9815 4.6398 41.1308 4.6398C41.2802 4.6398 41.3975 4.6878 41.4828 4.7838C41.5788 4.86913 41.6268 4.9918 41.6268 5.1518V11.7598C41.6268 14.0851 42.7575 15.2478 45.0188 15.2478C46.1388 15.2478 46.9815 14.9545 47.5468 14.3678C48.1228 13.7811 48.4108 12.9118 48.4108 11.7598V5.1518C48.4108 5.00247 48.4535 4.8798 48.5388 4.7838C48.6348 4.6878 48.7575 4.6398 48.9068 4.6398C49.0562 4.6398 49.1735 4.6878 49.2588 4.7838C49.3442 4.86913 49.3868 4.9918 49.3868 5.1518V11.6478C49.3868 13.1198 49.0135 14.2345 48.2668 14.9918C47.5308 15.7491 46.4482 16.1278 45.0188 16.1278ZM60.6144 4.6398C60.7638 4.6398 60.8758 4.6878 60.9504 4.7838C61.0358 4.86913 61.0784 4.9918 61.0784 5.1518V15.5678C61.0784 15.7171 61.0358 15.8398 60.9504 15.9358C60.8651 16.0318 60.7478 16.0798 60.5984 16.0798C60.4384 16.0798 60.2944 15.9998 60.1664 15.8398L53.1584 6.3838V15.5678C53.1584 15.7171 53.1158 15.8398 53.0304 15.9358C52.9451 16.0318 52.8331 16.0798 52.6944 16.0798C52.5344 16.0798 52.4171 16.0371 52.3424 15.9518C52.2678 15.8558 52.2304 15.7278 52.2304 15.5678V5.1518C52.2304 5.00247 52.2731 4.8798 52.3584 4.7838C52.4544 4.6878 52.5824 4.6398 52.7424 4.6398C52.9131 4.6398 53.0518 4.7198 53.1584 4.8798L60.1504 14.3198V5.1518C60.1504 5.00247 60.1931 4.8798 60.2784 4.7838C60.3638 4.6878 60.4758 4.6398 60.6144 4.6398ZM72.3801 4.6398C72.5294 4.6398 72.6414 4.6878 72.7161 4.7838C72.8014 4.86913 72.8441 4.9918 72.8441 5.1518V15.5678C72.8441 15.7171 72.8014 15.8398 72.7161 15.9358C72.6307 16.0318 72.5134 16.0798 72.3641 16.0798C72.2041 16.0798 72.0601 15.9998 71.9321 15.8398L64.9241 6.3838V15.5678C64.9241 15.7171 64.8814 15.8398 64.7961 15.9358C64.7107 16.0318 64.5987 16.0798 64.4601 16.0798C64.3001 16.0798 64.1827 16.0371 64.1081 15.9518C64.0334 15.8558 63.9961 15.7278 63.9961 15.5678V5.1518C63.9961 5.00247 64.0387 4.8798 64.1241 4.7838C64.2201 4.6878 64.3481 4.6398 64.5081 4.6398C64.6787 4.6398 64.8174 4.7198 64.9241 4.8798L71.9161 14.3198V5.1518C71.9161 5.00247 71.9587 4.8798 72.0441 4.7838C72.1294 4.6878 72.2414 4.6398 72.3801 4.6398ZM76.2897 15.9998C76.1404 15.9998 76.0124 15.9518 75.9057 15.8558C75.8097 15.7598 75.7617 15.6425 75.7617 15.5038V5.2158C75.7617 5.07713 75.8097 4.9598 75.9057 4.8638C76.0124 4.7678 76.1404 4.7198 76.2897 4.7198H82.3697C82.5084 4.7198 82.615 4.75713 82.6897 4.8318C82.775 4.90647 82.8177 5.01313 82.8177 5.1518C82.8177 5.2798 82.775 5.38113 82.6897 5.4558C82.615 5.53047 82.5084 5.5678 82.3697 5.5678H76.7377V9.8398H82.0497C82.1884 9.8398 82.295 9.87713 82.3697 9.9518C82.455 10.0265 82.4977 10.1331 82.4977 10.2718C82.4977 10.4105 82.455 10.5171 82.3697 10.5918C82.295 10.6665 82.1884 10.7038 82.0497 10.7038H76.7377V15.1518H82.3697C82.5084 15.1518 82.615 15.1891 82.6897 15.2638C82.775 15.3278 82.8177 15.4291 82.8177 15.5678C82.8177 15.7065 82.775 15.8131 82.6897 15.8878C82.615 15.9625 82.5084 15.9998 82.3697 15.9998H76.2897ZM85.5393 15.9998C85.4007 15.9998 85.278 15.9571 85.1713 15.8718C85.0753 15.7865 85.0273 15.6798 85.0273 15.5518V5.1518C85.0273 5.00247 85.07 4.8798 85.1553 4.7838C85.2513 4.6878 85.374 4.6398 85.5233 4.6398C85.6833 4.6398 85.806 4.6878 85.8913 4.7838C85.9767 4.86913 86.0193 4.9918 86.0193 5.1518V15.1358H91.4913C91.63 15.1358 91.7367 15.1731 91.8113 15.2478C91.8967 15.3225 91.9393 15.4291 91.9393 15.5678C91.9393 15.7065 91.8967 15.8131 91.8113 15.8878C91.7367 15.9625 91.63 15.9998 91.4913 15.9998H85.5393ZM96.7337 16.1278C95.9444 16.1278 95.1817 16.0051 94.4457 15.7598C93.7204 15.5038 93.1497 15.1625 92.7337 14.7358C92.595 14.6185 92.5257 14.4638 92.5257 14.2718C92.5257 14.1545 92.5577 14.0531 92.6217 13.9678C92.6964 13.8825 92.7764 13.8398 92.8617 13.8398C92.9684 13.8398 93.091 13.8931 93.2297 13.9998C94.2324 14.8318 95.4004 15.2478 96.7337 15.2478C97.7044 15.2478 98.451 15.0558 98.9737 14.6718C99.507 14.2771 99.7737 13.7225 99.7737 13.0078C99.7737 12.5918 99.6457 12.2558 99.3897 11.9998C99.1337 11.7438 98.8084 11.5465 98.4137 11.4078C98.019 11.2585 97.491 11.1091 96.8297 10.9598C95.955 10.7678 95.2457 10.5705 94.7017 10.3678C94.1684 10.1651 93.715 9.86113 93.3417 9.4558C92.9684 9.0398 92.7817 8.48513 92.7817 7.7918C92.7817 7.16247 92.947 6.6078 93.2777 6.1278C93.619 5.63713 94.0937 5.25847 94.7017 4.9918C95.3097 4.72513 96.0084 4.5918 96.7977 4.5918C97.5337 4.5918 98.227 4.71447 98.8777 4.9598C99.5284 5.19447 100.067 5.5358 100.493 5.9838C100.632 6.12247 100.701 6.27713 100.701 6.4478C100.701 6.56513 100.664 6.66647 100.589 6.7518C100.525 6.83713 100.451 6.8798 100.365 6.8798C100.259 6.8798 100.136 6.82647 99.9977 6.7198C99.4217 6.25047 98.899 5.92513 98.4297 5.7438C97.971 5.56247 97.427 5.4718 96.7977 5.4718C95.8484 5.4718 95.107 5.67447 94.5737 6.0798C94.0404 6.48513 93.7737 7.05047 93.7737 7.7758C93.7737 8.21313 93.891 8.57047 94.1257 8.8478C94.3604 9.11447 94.6644 9.3278 95.0377 9.4878C95.4217 9.6478 95.9124 9.80247 96.5097 9.9518L96.9257 10.0478C97.7897 10.2611 98.4724 10.4585 98.9737 10.6398C99.475 10.8211 99.8964 11.1038 100.237 11.4878C100.589 11.8611 100.765 12.3678 100.765 13.0078C100.765 13.6158 100.595 14.1598 100.253 14.6398C99.923 15.1091 99.4484 15.4771 98.8297 15.7438C98.2217 15.9998 97.523 16.1278 96.7337 16.1278Z" fill="#2B2C33"/>
</svg>
