<svg width="63" height="42" viewBox="0 0 63 42" fill="none" xmlns="http://www.w3.org/2000/svg">
<path d="M20.252 41.8984C16.1226 41.8984 12.9899 40.8257 10.854 38.6802C8.71805 36.5348 7.65009 33.4024 7.65009 29.2831V28.8817C7.65009 28.0522 7.89214 27.3941 8.3763 26.9078C8.86043 26.3929 9.51544 26.1355 10.3413 26.1355C11.1672 26.1355 11.8222 26.3929 12.3064 26.9078C12.7905 27.3941 13.0326 28.0522 13.0326 28.8817V29.5835C13.0326 32.1867 13.6449 34.1606 14.8695 35.505C16.0941 36.8209 17.8883 37.4788 20.252 37.4788C22.5873 37.4788 24.3672 36.8067 25.5918 35.462C26.8165 34.1176 27.4287 32.158 27.4287 29.5835V13.7931C27.4287 12.9635 27.6709 12.3055 28.1549 11.8192C28.639 11.3043 29.2942 11.0469 30.12 11.0469C30.9458 11.0469 31.601 11.3043 32.085 11.8192C32.5691 12.3055 32.8112 12.9635 32.8112 13.7931V29.2831C32.8112 33.374 31.7433 36.5063 29.6074 38.6802C27.4714 40.8257 24.353 41.8984 20.252 41.8984Z" fill="white"/>
<path d="M41.8846 41.77C41.0586 41.77 40.3895 41.527 39.8769 41.0405C39.3926 40.5256 39.1507 39.8391 39.1507 38.9809V13.8792C39.1507 13.0496 39.3784 12.406 39.8342 11.9483C40.3182 11.4906 40.9731 11.2617 41.7992 11.2617H52.3079C55.526 11.2617 58.0322 12.077 59.8264 13.7075C61.6206 15.3095 62.5177 17.5694 62.5177 20.4872C62.5177 23.405 61.6206 25.6792 59.8264 27.3096C58.0322 28.9402 55.526 29.7554 52.3079 29.7554H44.6613V38.9809C44.6613 39.8391 44.405 40.5256 43.8924 41.0405C43.4081 41.527 42.739 41.77 41.8846 41.77ZM51.6244 25.5075C55.412 25.5075 57.306 23.8484 57.306 20.5301C57.306 17.2118 55.412 15.5526 51.6244 15.5526H44.6613V25.5075H51.6244Z" fill="white"/>
<path d="M10.4166 23.6379C11.0679 23.6379 12.405 23.1409 12.212 23.1409L13.0804 22.431V9.13553L16.4455 12.6104C16.8797 13.1709 17.531 13.3951 18.2909 13.3951C18.9422 13.3951 19.5935 13.1709 20.0277 12.6104C21.1132 11.6016 21.1132 9.92021 20.0277 8.91136L12.212 0.840694C11.2351 -0.280231 9.60679 -0.280231 8.62982 0.840694L0.814133 8.91136C-0.271378 9.92021 -0.271378 11.6016 0.814133 12.6104C1.79109 13.7313 3.41937 13.7313 4.39631 12.6104L7.86996 9.13553V22.3189C7.86996 22.3189 8.53971 23.0789 8.62982 23.1409C9.35219 23.6379 9.65674 23.6379 10.4166 23.6379Z" fill="white"/>
</svg>
