<svg width="22" height="13" viewBox="0 0 22 13" fill="none" xmlns="http://www.w3.org/2000/svg">
<path d="M5.372 12.1538C3.82533 12.1538 2.652 11.7538 1.852 10.9538C1.052 10.1538 0.652 8.98577 0.652 7.44977V1.67377C0.652 1.36443 0.742667 1.1191 0.924 0.937765C1.10533 0.745765 1.35067 0.649765 1.66 0.649765C1.96933 0.649765 2.21467 0.745765 2.396 0.937765C2.57733 1.1191 2.668 1.36443 2.668 1.67377V7.56177C2.668 8.53243 2.89733 9.26843 3.356 9.76977C3.81467 10.2604 4.48667 10.5058 5.372 10.5058C6.24667 10.5058 6.91333 10.2551 7.372 9.75377C7.83067 9.25243 8.06 8.52177 8.06 7.56177V1.67377C8.06 1.36443 8.15067 1.1191 8.332 0.937765C8.51333 0.745765 8.75867 0.649765 9.068 0.649765C9.37733 0.649765 9.62267 0.745765 9.804 0.937765C9.98533 1.1191 10.076 1.36443 10.076 1.67377V7.44977C10.076 8.9751 9.676 10.1431 8.876 10.9538C8.076 11.7538 6.908 12.1538 5.372 12.1538ZM13.4744 12.1058C13.165 12.1058 12.9144 12.0151 12.7224 11.8338C12.541 11.6418 12.4504 11.3858 12.4504 11.0658V1.70576C12.4504 1.39643 12.5357 1.15643 12.7064 0.985765C12.8877 0.815098 13.133 0.729765 13.4424 0.729765H17.3784C18.5837 0.729765 19.5224 1.03377 20.1944 1.64177C20.8664 2.2391 21.2024 3.08177 21.2024 4.16977C21.2024 5.25777 20.8664 6.10577 20.1944 6.71377C19.5224 7.32177 18.5837 7.62577 17.3784 7.62577H14.5144V11.0658C14.5144 11.3858 14.4184 11.6418 14.2264 11.8338C14.045 12.0151 13.7944 12.1058 13.4744 12.1058ZM17.1224 6.04177C18.541 6.04177 19.2504 5.4231 19.2504 4.18577C19.2504 2.94843 18.541 2.32977 17.1224 2.32977H14.5144V6.04177H17.1224Z" fill="#009EF7"/>
</svg>
