<svg width="103" height="22" viewBox="0 0 103 22" fill="none" xmlns="http://www.w3.org/2000/svg">
<path d="M7.58523 15.6231C6.03857 15.6231 4.86523 15.2231 4.06523 14.4231C3.26523 13.6231 2.86523 12.4551 2.86523 10.9191V10.7694C2.86523 10.4601 2.9559 10.2147 3.13723 10.0334C3.31857 9.8414 3.5639 9.7454 3.87323 9.7454C4.18257 9.7454 4.4279 9.8414 4.60923 10.0334C4.79057 10.2147 4.88123 10.4601 4.88123 10.7694V11.0311C4.88123 12.0018 5.11057 12.7378 5.56923 13.2391C6.0279 13.7298 6.6999 13.9751 7.58523 13.9751C8.4599 13.9751 9.12657 13.7245 9.58523 13.2231C10.0439 12.7218 10.2732 11.9911 10.2732 11.0311V5.14314C10.2732 4.83381 10.3639 4.58847 10.5452 4.40714C10.7266 4.21514 10.9719 4.11914 11.2812 4.11914C11.5906 4.11914 11.8359 4.21514 12.0172 4.40714C12.1986 4.58847 12.2892 4.83381 12.2892 5.14314V10.9191C12.2892 12.4445 11.8892 13.6125 11.0892 14.4231C10.2892 15.2231 9.12123 15.6231 7.58523 15.6231Z" fill="#009EF7"/>
<path d="M15.6876 15.5751C15.3783 15.5751 15.1276 15.4845 14.9356 15.3031C14.7543 15.1111 14.6636 14.8551 14.6636 14.5351V5.17514C14.6636 4.86581 14.7489 4.62581 14.9196 4.45514C15.1009 4.28447 15.3463 4.19914 15.6556 4.19914H19.5916C20.7969 4.19914 21.7356 4.50314 22.4076 5.11114C23.0796 5.70847 23.4156 6.55114 23.4156 7.63914C23.4156 8.72714 23.0796 9.57514 22.4076 10.1831C21.7356 10.7911 20.7969 11.0951 19.5916 11.0951H16.7276V14.5351C16.7276 14.8551 16.6316 15.1111 16.4396 15.3031C16.2583 15.4845 16.0076 15.5751 15.6876 15.5751ZM19.3356 9.51114C20.7543 9.51114 21.4636 8.89247 21.4636 7.65514C21.4636 6.41781 20.7543 5.79914 19.3356 5.79914H16.7276V9.51114H19.3356Z" fill="#009EF7"/>
<path d="M3.90149 8.81413C4.14543 8.81413 4.64623 8.62881 4.57395 8.62881L4.89921 8.36409V3.40647L6.15959 4.70219C6.32222 4.91117 6.56616 4.99477 6.85077 4.99477C7.09471 4.99477 7.33865 4.91117 7.50128 4.70219C7.90786 4.32601 7.90786 3.69906 7.50128 3.32288L4.57395 0.313479C4.20804 -0.104493 3.59818 -0.104493 3.23226 0.313479L0.30493 3.32288C-0.101643 3.69906 -0.101643 4.32601 0.30493 4.70219C0.670846 5.12016 1.28071 5.12016 1.64662 4.70219L2.94766 3.40647V8.32229C2.94766 8.32229 3.19851 8.60569 3.23226 8.62881C3.50282 8.81413 3.61689 8.81413 3.90149 8.81413Z" fill="#009EF7"/>
<path d="M32.3678 16.08C32.2184 16.08 32.0958 16.032 31.9998 15.936C31.9144 15.84 31.8718 15.7173 31.8718 15.568V5.216C31.8718 5.07733 31.9198 4.96 32.0158 4.864C32.1224 4.768 32.2504 4.72 32.3998 4.72H38.3198C38.4584 4.72 38.5651 4.75733 38.6398 4.832C38.7251 4.90667 38.7678 5.01333 38.7678 5.152C38.7678 5.29067 38.7251 5.39733 38.6398 5.472C38.5651 5.536 38.4584 5.568 38.3198 5.568H32.8638V9.84H37.9998C38.1384 9.84 38.2451 9.87733 38.3198 9.952C38.4051 10.0267 38.4478 10.1333 38.4478 10.272C38.4478 10.4107 38.4051 10.5173 38.3198 10.592C38.2451 10.6667 38.1384 10.704 37.9998 10.704H32.8638V15.568C32.8638 15.728 32.8211 15.856 32.7358 15.952C32.6504 16.0373 32.5278 16.08 32.3678 16.08ZM45.0195 16.128C43.5795 16.128 42.4862 15.7493 41.7395 14.992C41.0035 14.2347 40.6355 13.12 40.6355 11.648V5.152C40.6355 4.992 40.6782 4.86933 40.7635 4.784C40.8595 4.688 40.9822 4.64 41.1315 4.64C41.2809 4.64 41.3982 4.688 41.4835 4.784C41.5795 4.86933 41.6275 4.992 41.6275 5.152V11.76C41.6275 14.0853 42.7582 15.248 45.0195 15.248C46.1395 15.248 46.9822 14.9547 47.5475 14.368C48.1235 13.7813 48.4115 12.912 48.4115 11.76V5.152C48.4115 5.00267 48.4542 4.88 48.5395 4.784C48.6355 4.688 48.7582 4.64 48.9075 4.64C49.0569 4.64 49.1742 4.688 49.2595 4.784C49.3449 4.86933 49.3875 4.992 49.3875 5.152V11.648C49.3875 13.12 49.0142 14.2347 48.2675 14.992C47.5315 15.7493 46.4489 16.128 45.0195 16.128ZM60.6151 4.64C60.7645 4.64 60.8765 4.688 60.9511 4.784C61.0365 4.86933 61.0791 4.992 61.0791 5.152V15.568C61.0791 15.7173 61.0365 15.84 60.9511 15.936C60.8658 16.032 60.7485 16.08 60.5991 16.08C60.4391 16.08 60.2951 16 60.1671 15.84L53.1591 6.384V15.568C53.1591 15.7173 53.1165 15.84 53.0311 15.936C52.9458 16.032 52.8338 16.08 52.6951 16.08C52.5351 16.08 52.4178 16.0373 52.3431 15.952C52.2685 15.856 52.2311 15.728 52.2311 15.568V5.152C52.2311 5.00267 52.2738 4.88 52.3591 4.784C52.4551 4.688 52.5831 4.64 52.7431 4.64C52.9138 4.64 53.0525 4.72 53.1591 4.88L60.1511 14.32V5.152C60.1511 5.00267 60.1938 4.88 60.2791 4.784C60.3645 4.688 60.4765 4.64 60.6151 4.64ZM72.3808 4.64C72.5301 4.64 72.6421 4.688 72.7168 4.784C72.8021 4.86933 72.8448 4.992 72.8448 5.152V15.568C72.8448 15.7173 72.8021 15.84 72.7168 15.936C72.6314 16.032 72.5141 16.08 72.3648 16.08C72.2048 16.08 72.0608 16 71.9328 15.84L64.9248 6.384V15.568C64.9248 15.7173 64.8821 15.84 64.7968 15.936C64.7114 16.032 64.5994 16.08 64.4608 16.08C64.3008 16.08 64.1834 16.0373 64.1088 15.952C64.0341 15.856 63.9968 15.728 63.9968 15.568V5.152C63.9968 5.00267 64.0394 4.88 64.1248 4.784C64.2208 4.688 64.3488 4.64 64.5088 4.64C64.6794 4.64 64.8181 4.72 64.9248 4.88L71.9168 14.32V5.152C71.9168 5.00267 71.9594 4.88 72.0448 4.784C72.1301 4.688 72.2421 4.64 72.3808 4.64ZM76.2904 16C76.1411 16 76.0131 15.952 75.9064 15.856C75.8104 15.76 75.7624 15.6427 75.7624 15.504V5.216C75.7624 5.07733 75.8104 4.96 75.9064 4.864C76.0131 4.768 76.1411 4.72 76.2904 4.72H82.3704C82.5091 4.72 82.6157 4.75733 82.6904 4.832C82.7757 4.90667 82.8184 5.01333 82.8184 5.152C82.8184 5.28 82.7757 5.38133 82.6904 5.456C82.6157 5.53067 82.5091 5.568 82.3704 5.568H76.7384V9.84H82.0504C82.1891 9.84 82.2957 9.87733 82.3704 9.952C82.4557 10.0267 82.4984 10.1333 82.4984 10.272C82.4984 10.4107 82.4557 10.5173 82.3704 10.592C82.2957 10.6667 82.1891 10.704 82.0504 10.704H76.7384V15.152H82.3704C82.5091 15.152 82.6157 15.1893 82.6904 15.264C82.7757 15.328 82.8184 15.4293 82.8184 15.568C82.8184 15.7067 82.7757 15.8133 82.6904 15.888C82.6157 15.9627 82.5091 16 82.3704 16H76.2904ZM85.54 16C85.4014 16 85.2787 15.9573 85.172 15.872C85.076 15.7867 85.028 15.68 85.028 15.552V5.152C85.028 5.00267 85.0707 4.88 85.156 4.784C85.252 4.688 85.3747 4.64 85.524 4.64C85.684 4.64 85.8067 4.688 85.892 4.784C85.9774 4.86933 86.02 4.992 86.02 5.152V15.136H91.492C91.6307 15.136 91.7374 15.1733 91.812 15.248C91.8974 15.3227 91.94 15.4293 91.94 15.568C91.94 15.7067 91.8974 15.8133 91.812 15.888C91.7374 15.9627 91.6307 16 91.492 16H85.54ZM96.7344 16.128C95.9451 16.128 95.1824 16.0053 94.4464 15.76C93.7211 15.504 93.1504 15.1627 92.7344 14.736C92.5957 14.6187 92.5264 14.464 92.5264 14.272C92.5264 14.1547 92.5584 14.0533 92.6224 13.968C92.6971 13.8827 92.7771 13.84 92.8624 13.84C92.9691 13.84 93.0917 13.8933 93.2304 14C94.2331 14.832 95.4011 15.248 96.7344 15.248C97.7051 15.248 98.4517 15.056 98.9744 14.672C99.5077 14.2773 99.7744 13.7227 99.7744 13.008C99.7744 12.592 99.6464 12.256 99.3904 12C99.1344 11.744 98.8091 11.5467 98.4144 11.408C98.0197 11.2587 97.4917 11.1093 96.8304 10.96C95.9557 10.768 95.2464 10.5707 94.7024 10.368C94.1691 10.1653 93.7157 9.86133 93.3424 9.456C92.9691 9.04 92.7824 8.48533 92.7824 7.792C92.7824 7.16267 92.9477 6.608 93.2784 6.128C93.6197 5.63733 94.0944 5.25867 94.7024 4.992C95.3104 4.72533 96.0091 4.592 96.7984 4.592C97.5344 4.592 98.2277 4.71467 98.8784 4.96C99.5291 5.19467 100.068 5.536 100.494 5.984C100.633 6.12267 100.702 6.27733 100.702 6.448C100.702 6.56533 100.665 6.66667 100.59 6.752C100.526 6.83733 100.452 6.88 100.366 6.88C100.26 6.88 100.137 6.82667 99.9984 6.72C99.4224 6.25067 98.8997 5.92533 98.4304 5.744C97.9717 5.56267 97.4277 5.472 96.7984 5.472C95.8491 5.472 95.1077 5.67467 94.5744 6.08C94.0411 6.48533 93.7744 7.05067 93.7744 7.776C93.7744 8.21333 93.8917 8.57067 94.1264 8.848C94.3611 9.11467 94.6651 9.328 95.0384 9.488C95.4224 9.648 95.9131 9.80267 96.5104 9.952L96.9264 10.048C97.7904 10.2613 98.4731 10.4587 98.9744 10.64C99.4757 10.8213 99.8971 11.104 100.238 11.488C100.59 11.8613 100.766 12.368 100.766 13.008C100.766 13.616 100.596 14.16 100.254 14.64C99.9237 15.1093 99.4491 15.4773 98.8304 15.744C98.2224 16 97.5237 16.128 96.7344 16.128Z" fill="#2B2C33"/>
</svg>
