<svg width="101" height="125" viewBox="0 0 101 125" fill="none" xmlns="http://www.w3.org/2000/svg">
<rect x="1" y="0.5" width="99" height="124" rx="7.5" fill="white"/>
<rect x="1" y="0.5" width="99" height="124" rx="7.5" stroke="#8FD7FF"/>
<rect x="15" y="23" width="50" height="34" rx="2" fill="#D2EFFF"/>
<rect x="15" y="61" width="50" height="3" rx="1.5" fill="#8FD7FF"/>
<rect x="15" y="66" width="50" height="2" rx="1" fill="#D2EFFF"/>
<circle cx="92" cy="115.5" r="4.5" fill="#D2EFFF"/>
<rect x="69" y="23" width="19" height="2" rx="1" fill="#D2EFFF"/>
<rect x="69" y="27" width="19" height="2" rx="1" fill="#D2EFFF"/>
<rect x="69" y="31" width="19" height="2" rx="1" fill="#D2EFFF"/>
<rect x="69" y="35" width="19" height="2" rx="1" fill="#D2EFFF"/>
<rect x="69" y="39" width="19" height="2" rx="1" fill="#D2EFFF"/>
<rect x="69" y="43" width="19" height="2" rx="1" fill="#D2EFFF"/>
<rect x="69" y="47" width="19" height="2" rx="1" fill="#D2EFFF"/>
<rect x="69" y="51" width="19" height="2" rx="1" fill="#D2EFFF"/>
<rect x="69" y="55" width="19" height="2" rx="1" fill="#D2EFFF"/>
</svg>
