<svg width="30" height="21" viewBox="0 0 30 21" fill="none" xmlns="http://www.w3.org/2000/svg">
<path d="M12.1 14.6719L19.6255 10.3219L12.1 5.97188V14.6719ZM28.862 3.31838C29.0505 3.99988 29.181 4.91337 29.268 6.07337C29.3695 7.23337 29.413 8.23388 29.413 9.10388L29.5 10.3219C29.5 13.4974 29.268 15.8319 28.862 17.3254C28.4995 18.6304 27.6585 19.4714 26.3535 19.8339C25.672 20.0224 24.425 20.1529 22.511 20.2399C20.626 20.3414 18.9005 20.3849 17.3055 20.3849L15 20.4719C8.9245 20.4719 5.14 20.2399 3.6465 19.8339C2.3415 19.4714 1.5005 18.6304 1.138 17.3254C0.9495 16.6439 0.819 15.7304 0.732 14.5704C0.6305 13.4104 0.587 12.4099 0.587 11.5399L0.5 10.3219C0.5 7.14638 0.732 4.81188 1.138 3.31838C1.5005 2.01338 2.3415 1.17238 3.6465 0.809875C4.328 0.621375 5.575 0.490875 7.489 0.403875C9.374 0.302375 11.0995 0.258875 12.6945 0.258875L15 0.171875C21.0755 0.171875 24.86 0.403875 26.3535 0.809875C27.6585 1.17238 28.4995 2.01338 28.862 3.31838Z" fill="white"/>
</svg>
