<svg width="20" height="20" viewBox="0 0 20 20" fill="none" xmlns="http://www.w3.org/2000/svg">
<rect width="20" height="20" rx="10" fill="#444F55"/>
<g clip-path="url(#clip0_3188_3686)">
<path d="M7.68906 11.9629L5.72613 10L7.68906 8.03706L8.15669 8.52168L6.67837 10L8.15669 11.4783L7.68906 11.9629ZM12.3109 11.9629L11.8433 11.4783L13.3216 10L11.8433 8.52168L12.3109 8.03706L14.2739 10L12.3109 11.9629ZM5.6602 15.4375C5.34754 15.4375 5.08654 15.3328 4.8772 15.1235C4.6674 14.9137 4.5625 14.6525 4.5625 14.3398V12.0391H5.24219V14.3398C5.24219 14.444 5.28569 14.5399 5.37269 14.6273C5.46014 14.7143 5.55598 14.7578 5.6602 14.7578H7.96094V15.4375H5.6602ZM12.0391 15.4375V14.7578H14.3398C14.444 14.7578 14.5399 14.7143 14.6273 14.6273C14.7143 14.5399 14.7578 14.444 14.7578 14.3398V12.0391H15.4375V14.3398C15.4375 14.6525 15.3328 14.9135 15.1235 15.1228C14.9137 15.3326 14.6525 15.4375 14.3398 15.4375H12.0391ZM4.5625 7.96094V5.6602C4.5625 5.34754 4.6674 5.08654 4.8772 4.8772C5.08654 4.6674 5.34754 4.5625 5.6602 4.5625H7.96094V5.24219H5.6602C5.55598 5.24219 5.46014 5.28569 5.37269 5.37269C5.28569 5.46014 5.24219 5.55598 5.24219 5.6602V7.96094H4.5625ZM14.7578 7.96094V5.6602C14.7578 5.55598 14.7143 5.46014 14.6273 5.37269C14.5399 5.28569 14.444 5.24219 14.3398 5.24219H12.0391V4.5625H14.3398C14.6525 4.5625 14.9135 4.6674 15.1228 4.8772C15.3326 5.08654 15.4375 5.34754 15.4375 5.6602V7.96094H14.7578Z" fill="white"/>
</g>
<defs>
<clipPath id="clip0_3188_3686">
<rect width="12" height="12" fill="white" transform="translate(4 4)"/>
</clipPath>
</defs>
</svg>
