<svg width="20" height="20" viewBox="0 0 20 20" fill="none" xmlns="http://www.w3.org/2000/svg">
<rect width="20" height="20" rx="10" fill="#4F8EF5"/>
<path d="M10.125 4.73492C9.775 4.70992 9.41 4.78992 9.085 4.97992C8.87623 5.09946 8.6931 5.25903 8.54613 5.44949C8.39915 5.63994 8.29121 5.85754 8.2285 6.0898C8.16579 6.32205 8.14955 6.5644 8.18069 6.80295C8.21184 7.0415 8.28976 7.27155 8.41 7.47992L12.08 13.8299C12.585 14.7099 13.705 14.9999 14.585 14.4999C15.46 13.9999 15.75 12.8749 15.25 11.9999L11.59 5.64992C11.4388 5.38959 11.2263 5.17015 10.971 5.01068C10.7157 4.85121 10.4253 4.75654 10.125 4.73492ZM7.41 7.37992L4.75 11.9999C4.58792 12.2777 4.5017 12.5933 4.5 12.9149C4.5 13.1559 4.54746 13.3945 4.63968 13.6171C4.7319 13.8398 4.86706 14.0421 5.03746 14.2125C5.20785 14.3829 5.41014 14.518 5.63278 14.6102C5.85541 14.7025 6.09402 14.7499 6.335 14.7499C6.65665 14.7489 6.97239 14.6634 7.25057 14.502C7.52876 14.3405 7.75961 14.1087 7.92 13.8299V13.8349L9.5 11.0949C8.825 9.94492 8.135 8.79992 7.515 7.61492C7.475 7.53992 7.44 7.45992 7.415 7.37992H7.41Z" fill="white"/>
</svg>
