<svg width="20" height="21" viewBox="0 0 20 21" fill="none" xmlns="http://www.w3.org/2000/svg">
<rect y="0.5" width="20" height="20" rx="10" fill="#F2F2F2"/>
<g clip-path="url(#clip0_2655_4493)">
<path d="M10.9562 15.5494L9.04688 13.6875L13.1475 9.5L15.1244 11.4375L10.9562 15.5494Z" fill="#8AB4F8"/>
<path d="M10.9647 7.3175L9.06219 5.375L4.90219 9.49563C4.36594 10.0319 4.36594 10.9012 4.90219 11.4381L8.99969 15.5625L10.9372 13.75L7.81531 10.4669L10.9647 7.3175Z" fill="#4285F4"/>
<path d="M15.097 9.52766L10.972 5.40266C10.4352 4.86578 9.56453 4.86578 9.02766 5.40266C8.49078 5.93953 8.49078 6.81016 9.02766 7.34703L13.1527 11.472C13.6895 12.0089 14.5602 12.0089 15.097 11.472C15.6339 10.9352 15.6339 10.0645 15.097 9.52766Z" fill="#8AB4F8"/>
<path d="M9.96875 16C10.7109 16 11.3125 15.3984 11.3125 14.6562C11.3125 13.9141 10.7109 13.3125 9.96875 13.3125C9.22662 13.3125 8.625 13.9141 8.625 14.6562C8.625 15.3984 9.22662 16 9.96875 16Z" fill="#246FDB"/>
</g>
<defs>
<clipPath id="clip0_2655_4493">
<rect width="12" height="12" fill="white" transform="translate(4 4.5)"/>
</clipPath>
</defs>
</svg>
