<svg width="20" height="20" viewBox="0 0 20 20" fill="none" xmlns="http://www.w3.org/2000/svg">
<rect width="20" height="20" rx="10" fill="#F2F2F2"/>
<g clip-path="url(#clip0_3115_3678)">
<path d="M10.9562 15.0494L9.04688 13.1875L13.1475 9L15.1244 10.9375L10.9562 15.0494Z" fill="#8AB4F8"/>
<path d="M10.9647 6.8175L9.06219 4.875L4.90219 8.99563C4.36594 9.53188 4.36594 10.4013 4.90219 10.9381L8.99969 15.0625L10.9372 13.25L7.81531 9.96688L10.9647 6.8175Z" fill="#4285F4"/>
<path d="M15.097 9.02766L10.972 4.90266C10.4352 4.36578 9.56453 4.36578 9.02766 4.90266C8.49078 5.43953 8.49078 6.31016 9.02766 6.84703L13.1527 10.972C13.6895 11.5089 14.5602 11.5089 15.097 10.972C15.6339 10.4352 15.6339 9.56453 15.097 9.02766Z" fill="#8AB4F8"/>
<path d="M9.96875 15.5C10.7109 15.5 11.3125 14.8984 11.3125 14.1562C11.3125 13.4141 10.7109 12.8125 9.96875 12.8125C9.22662 12.8125 8.625 13.4141 8.625 14.1562C8.625 14.8984 9.22662 15.5 9.96875 15.5Z" fill="#246FDB"/>
</g>
<defs>
<clipPath id="clip0_3115_3678">
<rect width="12" height="12" fill="white" transform="translate(4 4)"/>
</clipPath>
</defs>
</svg>
