<svg width="28" height="29" viewBox="0 0 28 22" fill="none" xmlns="http://www.w3.org/2000/svg">
<g filter="url(#filter0_d_2658_1730)">
<rect x="4" y="0.5" width="20" height="20" rx="10" fill="#1877F2" shape-rendering="crispEdges"/>
<path fill-rule="evenodd" clip-rule="evenodd" d="M16.0112 6.75116C16.9262 6.68816 17.6332 7.22216 18.1037 7.83816C18.5777 8.45966 18.9042 9.27116 19.0837 10.0692C19.2622 10.8672 19.3102 11.7247 19.1617 12.4557C19.0192 13.1577 18.6387 13.9607 17.7782 14.2182C16.9682 14.4602 16.2582 14.1082 15.7522 13.6822C15.2442 13.2547 14.8142 12.6557 14.4762 12.0942C14.3181 11.8303 14.1697 11.5608 14.0312 11.2862C13.8929 11.5606 13.7446 11.83 13.5867 12.0937C13.2487 12.6557 12.8187 13.2547 12.3107 13.6822C11.8042 14.1082 11.0947 14.4602 10.2847 14.2182C9.4242 13.9607 9.0437 13.1582 8.9012 12.4557C8.7532 11.7247 8.8012 10.8672 8.9797 10.0692C9.1587 9.27116 9.4852 8.45916 9.9597 7.83816C10.4297 7.22216 11.1367 6.68816 12.0517 6.75116C12.9097 6.81116 13.5332 7.39266 13.9217 7.88566L14.0317 8.03016L14.1412 7.88516C14.5297 7.39266 15.1532 6.81066 16.0112 6.75116ZM11.9477 8.24766C11.7377 8.23316 11.4627 8.34066 11.1517 8.74866C10.8447 9.15116 10.5897 9.74516 10.4432 10.3977C10.2972 11.0502 10.2757 11.6872 10.3712 12.1577C10.4537 12.5627 10.5862 12.7082 10.6672 12.7592L10.7012 12.7762L10.7147 12.7812C10.8307 12.8162 11.0217 12.8062 11.3447 12.5342C11.6672 12.2632 11.9962 11.8277 12.3017 11.3207C12.4377 11.0942 12.5642 10.8622 12.6777 10.6392L12.8077 10.3767L12.9242 10.1282L13.0272 9.89916L13.1147 9.69566L13.1862 9.52266C13.0895 9.32834 12.9787 9.14135 12.8547 8.96316C12.5327 8.50516 12.2097 8.26616 11.9477 8.24816V8.24766ZM16.1152 8.24766C15.8532 8.26616 15.5302 8.50516 15.2082 8.96316C15.0842 9.14134 14.9734 9.32834 14.8767 9.52266L14.9902 9.79416L15.0852 10.0112L15.1387 10.1282L15.2557 10.3767L15.3857 10.6392C15.4992 10.8622 15.6252 11.0942 15.7612 11.3207C16.0667 11.8277 16.3962 12.2632 16.7177 12.5342C17.0182 12.7872 17.2042 12.8132 17.3227 12.7877L17.3487 12.7812C17.4137 12.7612 17.5902 12.6567 17.6917 12.1572C17.7867 11.6872 17.7662 11.0502 17.6197 10.3972C17.4737 9.74516 17.2187 9.15116 16.9112 8.74866C16.5997 8.34066 16.3252 8.23366 16.1152 8.24766Z" fill="white"/>
</g>
<defs>
<filter id="filter0_d_2658_1730" x="0" y="0.5" width="28" height="28" filterUnits="userSpaceOnUse" color-interpolation-filters="sRGB">
<feFlood flood-opacity="0" result="BackgroundImageFix"/>
<feColorMatrix in="SourceAlpha" type="matrix" values="0 0 0 0 0 0 0 0 0 0 0 0 0 0 0 0 0 0 127 0" result="hardAlpha"/>
<feOffset dy="4"/>
<feGaussianBlur stdDeviation="2"/>
<feComposite in2="hardAlpha" operator="out"/>
<feColorMatrix type="matrix" values="0 0 0 0 0 0 0 0 0 0 0 0 0 0 0 0 0 0 0.25 0"/>
<feBlend mode="normal" in2="BackgroundImageFix" result="effect1_dropShadow_2658_1730"/>
<feBlend mode="normal" in="SourceGraphic" in2="effect1_dropShadow_2658_1730" result="shape"/>
</filter>
</defs>
</svg>
