<svg width="20" height="20" viewBox="0 0 20 20" fill="none" xmlns="http://www.w3.org/2000/svg">
<rect width="20" height="20" rx="10" fill="#004A7A"/>
<path d="M7.22012 7.13397C6.36877 7.12914 6.25042 7.95694 6.2468 8.58066C6.24318 9.20499 6.35186 10.0455 7.20261 10.0509C8.05336 10.0557 8.17231 9.21707 8.17593 8.59214C8.18016 7.96781 8.07148 7.1388 7.22012 7.13397ZM7.19355 11.6848C4.98064 11.6721 3.99041 10.2019 4.00007 8.56799C4.00973 6.93351 5.01626 5.48681 7.22978 5.50009C9.4427 5.51217 10.4329 6.97034 10.4233 8.60482C10.4136 10.2393 9.40647 11.6975 7.19355 11.6848Z" fill="white"/>
<path d="M12.7957 7.13397C11.9449 7.12853 11.8266 7.95694 11.823 8.58127C11.8187 9.20559 11.9274 10.0455 12.7788 10.0509C13.6289 10.0557 13.7479 9.21707 13.7515 8.59274C13.7557 7.96781 13.647 7.1388 12.7957 7.13397ZM12.7691 11.6848C10.5568 11.6715 9.56658 10.2013 9.57624 8.56738C9.5853 6.93351 10.5924 5.48681 12.8054 5.50009C15.0183 5.51277 16.0085 6.97094 15.9994 8.60482C15.9892 10.2393 14.982 11.6975 12.7691 11.6848Z" fill="white"/>
<path d="M4.84313 11.6855C6.43836 12.398 8.09398 12.715 9.89812 12.7253C11.7928 12.7368 13.2299 12.3787 15.0491 11.6855L15.0382 13.6485C13.4098 14.4558 11.6443 14.8911 9.88484 14.8814C7.96718 14.87 6.58509 14.4763 4.83105 13.6485L4.84313 11.6855Z" fill="white"/>
</svg>
