<svg width="20" height="20" viewBox="0 0 20 20" fill="none" xmlns="http://www.w3.org/2000/svg">
<rect width="20" height="20" rx="10" fill="black"/>
<path fill-rule="evenodd" clip-rule="evenodd" d="M11.088 4.5625C11.3764 4.5625 11.653 4.67708 11.857 4.88103C12.0609 5.08497 12.1755 5.36159 12.1755 5.65001C12.1758 6.02581 12.3056 6.39002 12.5431 6.68123C12.7807 6.97245 13.1113 7.17285 13.4794 7.24866C13.7621 7.30606 14.0103 7.47339 14.1696 7.71384C14.3289 7.9543 14.3862 8.24818 14.3288 8.53084C14.2714 8.8135 14.104 9.06178 13.8636 9.22106C13.6231 9.38035 13.3292 9.43759 13.0466 9.38019C12.7455 9.31893 12.453 9.22124 12.1755 9.08928V12.1751C12.1755 12.7853 12.0043 13.3833 11.6814 13.9011C11.3586 14.4189 10.8969 14.8358 10.349 15.1044C9.8011 15.373 9.18882 15.4826 8.58175 15.4206C7.97468 15.3587 7.39715 15.1277 6.91476 14.754C6.43238 14.3803 6.06448 13.8787 5.85286 13.3064C5.64124 12.734 5.59438 12.1138 5.7176 11.5161C5.84082 10.9185 6.12919 10.3674 6.54994 9.92541C6.9707 9.48344 7.50697 9.16833 8.09784 9.01587C8.37538 8.94894 8.66812 8.99383 8.91285 9.14085C9.15758 9.28788 9.33468 9.52524 9.40592 9.80171C9.47716 10.0782 9.43683 10.3716 9.29362 10.6186C9.15042 10.8655 8.91584 11.0463 8.64051 11.1218C8.38558 11.1895 8.16389 11.3474 8.01661 11.5662C7.86934 11.785 7.80652 12.0498 7.83981 12.3115C7.8731 12.5731 8.00026 12.8137 8.19763 12.9887C8.39501 13.1636 8.64919 13.261 8.91293 13.2626C9.20136 13.2626 9.47798 13.148 9.68192 12.9441C9.88587 12.7401 10.0004 12.4635 10.0004 12.1751V5.65001C10.0004 5.36159 10.115 5.08497 10.319 4.88103C10.5229 4.67708 10.7995 4.5625 11.088 4.5625Z" fill="white"/>
</svg>
