<svg width="10" height="10" viewBox="0 0 10 10" fill="none" xmlns="http://www.w3.org/2000/svg">
<path fill-rule="evenodd" clip-rule="evenodd" d="M4.74776 0.709703C4.8202 0.654747 4.90864 0.625 4.99957 0.625C5.0905 0.625 5.17894 0.654747 5.25139 0.709703C5.32384 0.764659 5.37632 0.841806 5.40082 0.929374L5.40198 0.93352L6.06068 3.48973C6.08858 3.59786 6.14496 3.69658 6.22392 3.77555C6.3029 3.85452 6.40159 3.91089 6.50974 3.93879L9.06935 4.59841C9.15727 4.62266 9.23479 4.67511 9.29004 4.74767C9.3453 4.82022 9.37522 4.9089 9.37522 5.0001C9.37522 5.0913 9.3453 5.17998 9.29004 5.25254C9.23479 5.3251 9.15726 5.37752 9.06934 5.40177L9.06594 5.40271L6.50974 6.06142C6.40161 6.08932 6.30288 6.1457 6.22392 6.22466C6.14495 6.30363 6.08858 6.40232 6.06068 6.51046L5.40045 9.07085C5.37594 9.15841 5.32342 9.23555 5.25097 9.2905C5.17853 9.34546 5.09009 9.37521 4.99916 9.37521C4.90822 9.37521 4.81979 9.34546 4.74734 9.2905C4.67489 9.23555 4.62241 9.1584 4.59791 9.07083L4.59675 9.06669L3.93805 6.51048C3.91015 6.40233 3.85378 6.30364 3.77481 6.22466C3.69584 6.14569 3.59715 6.08932 3.48901 6.06142L0.927879 5.401C0.840656 5.37624 0.763904 5.32365 0.70924 5.25131C0.654576 5.17897 0.625 5.09077 0.625 5.0001C0.625 4.90943 0.654576 4.82124 0.70924 4.7489C0.763904 4.67656 0.840672 4.62403 0.927896 4.59927L0.932715 4.5979L3.48898 3.93838C3.59709 3.9105 3.6958 3.85417 3.77477 3.77525C3.85374 3.69634 3.91013 3.59771 3.93808 3.48962L4.59828 0.929363C4.62279 0.841795 4.67531 0.764659 4.74776 0.709703ZM8.3327 1.04177C8.3327 1.04177 8.54103 1.67584 8.54103 1.8751C8.7403 1.8751 9.37436 2.08344 9.37436 2.08344C9.37436 2.08344 8.7403 2.29177 8.54103 2.29177C8.54103 2.58182 8.3327 3.1251 8.3327 3.1251C8.3327 3.1251 8.12436 2.58182 8.12436 2.29177C7.9251 2.29177 7.29103 2.08344 7.29103 2.08344C7.29103 2.08344 7.9251 1.8751 8.12436 1.8751C8.12436 1.67584 8.3327 1.04177 8.3327 1.04177ZM1.66603 6.8751C1.66603 6.8751 1.87436 7.13055 1.87436 7.29177C2.03558 7.29177 2.29103 7.5001 2.29103 7.5001C2.29103 7.5001 2.03558 7.70844 1.87436 7.70844C1.87436 7.90493 1.66603 8.1251 1.66603 8.1251C1.66603 8.1251 1.4577 7.86965 1.4577 7.70844C1.29648 7.70844 1.04103 7.5001 1.04103 7.5001C1.04103 7.5001 1.29648 7.29177 1.4577 7.29177C1.4577 7.13055 1.66603 6.8751 1.66603 6.8751Z" fill="url(#paint0_linear_4123_1217)"/>
<defs>
<linearGradient id="paint0_linear_4123_1217" x1="8.33333" y1="1.66667" x2="2.29167" y2="8.54167" gradientUnits="userSpaceOnUse">
<stop stop-color="#26CBFF"/>
<stop offset="1" stop-color="#CE42FF"/>
</linearGradient>
</defs>
</svg>
